<svg width="138" height="25" viewBox="0 0 138 25" fill="none" xmlns="http://www.w3.org/2000/svg">
<path d="M11.272 5.23753C11.7851 3.65814 14.0196 3.65814 14.5327 5.23753L15.2116 7.32698C15.4411 8.0333 16.0993 8.51152 16.842 8.51152H19.039C20.6997 8.51152 21.3901 10.6366 20.0466 11.6127L18.2692 12.904C17.6684 13.3406 17.417 14.1144 17.6465 14.8207L18.3254 16.9101C18.8386 18.4895 17.0309 19.8029 15.6874 18.8268L13.91 17.5354C13.3091 17.0989 12.4955 17.0989 11.8947 17.5354L10.1173 18.8268C8.77381 19.8029 6.96613 18.4895 7.4793 16.9101L8.15821 14.8207C8.38771 14.1144 8.13629 13.3406 7.53546 12.904L5.75806 11.6127C4.41455 10.6366 5.10503 8.51152 6.7657 8.51152H8.96267C9.70535 8.51152 10.3636 8.0333 10.5931 7.32698L11.272 5.23753Z" fill="#5E9DDC"/>
<path d="M38.1182 9.21211L47.1307 9.21391L52.6109 9.21485V3.78564L38.1182 9.21211Z" fill="#FF9D28"/>
<path d="M52.6108 3.78583V22.9536L59.4555 1.22217L52.6108 3.78583Z" fill="#68C5ED"/>
<path d="M52.6108 9.2148L47.1306 9.21387L52.6108 22.9534V9.2148Z" fill="#044D80"/>
<path d="M38.1182 9.21191L48.536 12.7391L47.1307 9.21371L38.1182 9.21191Z" fill="#E54747"/>
<path d="M71.3184 17.9079C71.2389 17.9874 71.1065 18.0865 70.9214 18.2056C70.7359 18.3248 70.4945 18.4439 70.1968 18.5631C69.899 18.682 69.5349 18.7844 69.105 18.8707C68.6747 18.9566 68.182 18.9997 67.6261 18.9997C66.5541 18.9997 65.6276 18.8275 64.8469 18.4837C64.0659 18.1398 63.4208 17.6597 62.9114 17.0445C62.4019 16.429 62.0281 15.7013 61.7899 14.8608C61.5517 14.0204 61.4326 13.0975 61.4326 12.0915C61.4326 11.086 61.5616 10.1561 61.8197 9.30254C62.0777 8.4489 62.4648 7.7114 62.9809 7.0891C63.4971 6.46727 64.1422 5.98085 64.9165 5.63003C65.6906 5.27961 66.6003 5.104 67.6459 5.104C68.1621 5.104 68.6286 5.15047 69.0455 5.24294C69.4623 5.33562 69.8262 5.44489 70.1373 5.57049C70.4481 5.69643 70.7062 5.82851 70.9115 5.96751C71.1165 6.10645 71.272 6.22253 71.378 6.31486C71.4971 6.421 71.5995 6.54661 71.6857 6.69202C71.7717 6.83782 71.8147 6.99663 71.8147 7.16851C71.8147 7.43338 71.7155 7.69793 71.517 7.96254C71.3185 8.22742 71.1001 8.47224 70.8618 8.69705C70.703 8.53824 70.5244 8.37636 70.3259 8.21076C70.1274 8.04535 69.9056 7.89994 69.6609 7.774C69.4159 7.6484 69.1379 7.54259 68.8271 7.45639C68.516 7.37045 68.1687 7.32731 67.785 7.32731C67.11 7.32731 66.5443 7.46319 66.0877 7.73427C65.6312 8.00568 65.2639 8.35956 64.986 8.79632C64.7081 9.23307 64.5096 9.7327 64.3904 10.2951C64.2714 10.8577 64.2118 11.43 64.2118 12.0122C64.2118 12.6344 64.2714 13.2299 64.3904 13.7987C64.5095 14.3678 64.7145 14.8708 65.0059 15.3074C65.2967 15.7441 65.6774 16.0949 66.1473 16.3594C66.6168 16.6244 67.2024 16.7565 67.9041 16.7565C68.2744 16.7565 68.6153 16.7103 68.9264 16.6176C69.2371 16.5251 69.512 16.4125 69.7502 16.28C69.9884 16.1479 70.1969 16.0091 70.3755 15.8633C70.5541 15.7177 70.703 15.5922 70.8221 15.486C70.9016 15.5789 70.994 15.6915 71.1 15.8236C71.2067 15.9571 71.306 16.0963 71.3978 16.2405C71.4902 16.3862 71.5697 16.5317 71.636 16.677C71.7021 16.8229 71.7352 16.9551 71.7352 17.074C71.7352 17.2463 71.7021 17.3917 71.636 17.5108C71.5696 17.63 71.4638 17.7624 71.3184 17.9079ZM81.5484 16.3854C81.5484 17.4373 81.7013 18.2028 82.0077 18.6821C81.7681 18.7751 81.545 18.8418 81.3387 18.8817C81.1321 18.9217 80.9159 18.9416 80.6896 18.9416C80.2104 18.9416 79.8475 18.8484 79.6013 18.6621C79.3548 18.4759 79.1984 18.2096 79.132 17.8632C78.8389 18.1698 78.4529 18.4293 77.9737 18.6423C77.4944 18.8549 76.9084 18.9618 76.2163 18.9618C75.8568 18.9618 75.4974 18.9119 75.1379 18.8127C74.7783 18.7127 74.4521 18.5504 74.1592 18.3251C73.8662 18.0992 73.6267 17.7973 73.4403 17.419C73.2537 17.0407 73.1607 16.5796 73.1607 16.0356C73.1607 15.3588 73.3237 14.8078 73.65 14.3833C73.9762 13.9584 74.3855 13.6234 74.8783 13.3778C75.3707 13.1325 75.9033 12.9636 76.476 12.8705C77.0483 12.7774 77.5743 12.7179 78.0536 12.691C78.2134 12.6779 78.3697 12.671 78.5229 12.671H78.9523V12.3076C78.9523 11.7958 78.8156 11.4322 78.5429 11.217C78.2698 11.0016 77.827 10.8937 77.2148 10.8937C76.6422 10.8937 76.1329 10.987 75.6871 11.1732C75.2408 11.3598 74.8049 11.5727 74.379 11.8123C74.1924 11.5861 74.0425 11.3365 73.9296 11.0634C73.8164 10.7908 73.7599 10.5876 73.7599 10.4543C73.7599 10.2681 73.8628 10.0883 74.0694 9.91511C74.2757 9.7423 74.5587 9.58562 74.9182 9.44582C75.2778 9.30601 75.6903 9.19307 76.1565 9.10633C76.6223 9.01986 77.115 8.97653 77.6343 8.97653C78.3532 8.97653 78.9623 9.04986 79.4615 9.19621C79.9608 9.34288 80.3668 9.56909 80.6798 9.87517C80.9925 10.1817 81.2155 10.5642 81.3487 11.0235C81.4817 11.4829 81.5485 12.0189 81.5485 12.6311L81.5484 16.3854ZM78.9921 14.0689H78.7126C78.6192 14.0689 78.5259 14.0758 78.433 14.089C78.1 14.1158 77.7704 14.1556 77.4445 14.2087C77.1181 14.2621 76.8284 14.3553 76.5758 14.4883C76.3227 14.6215 76.1164 14.7947 75.9567 15.0075C75.7969 15.2206 75.717 15.4937 75.717 15.8264C75.717 16.1992 75.8234 16.5152 76.0365 16.7749C76.2493 17.0346 76.6088 17.1644 77.1149 17.1644C77.3677 17.1644 77.6074 17.1313 77.8339 17.0644C78.0601 16.9981 78.2598 16.9115 78.433 16.805C78.6059 16.6984 78.7425 16.582 78.8424 16.4554C78.9422 16.329 78.9922 16.2126 78.9922 16.106L78.9921 14.0689ZM86.5208 10.1347C86.733 9.88197 87.065 9.62549 87.5162 9.36581C87.9674 9.1062 88.5381 8.97639 89.2283 8.97639C89.7196 8.97639 90.1873 9.05966 90.6321 9.22601C91.0764 9.39261 91.4714 9.66229 91.8165 10.0348C92.1616 10.4077 92.437 10.9004 92.6428 11.5127C92.8485 12.1252 92.9514 12.8776 92.9514 13.7693C92.9514 14.8077 92.8318 15.6634 92.593 16.3356C92.3539 17.0081 92.0456 17.5407 91.6675 17.9333C91.2892 18.3261 90.8676 18.6023 90.4033 18.762C89.9387 18.9218 89.4741 19.0018 89.0097 19.0018C88.6248 19.0018 88.2895 18.9584 88.0044 18.8719C87.7189 18.7852 87.4767 18.689 87.2776 18.5823C87.0786 18.4759 86.926 18.3696 86.8199 18.2628C86.7138 18.1564 86.6473 18.083 86.6209 18.043V22.9522H83.9048V9.25594C83.9716 9.24287 84.0521 9.22947 84.1463 9.21607C84.2269 9.20301 84.3208 9.19294 84.4281 9.18607C84.5354 9.17954 84.6628 9.17614 84.8103 9.17614C85.2528 9.17614 85.6285 9.24947 85.937 9.39582C86.2455 9.54249 86.4403 9.78863 86.5208 10.1347ZM90.1156 13.8292C90.1156 13.4298 90.0824 13.0573 90.0163 12.7109C89.9502 12.3649 89.841 12.0653 89.6887 11.8123C89.5364 11.5595 89.331 11.3629 89.073 11.223C88.8146 11.0833 88.5004 11.0135 88.1299 11.0135C87.574 11.0135 87.1868 11.1202 86.9682 11.3329C86.7499 11.5461 86.6407 11.7792 86.6407 12.0319V16.2658C86.7464 16.3724 86.9348 16.4987 87.2063 16.6452C87.4778 16.7918 87.792 16.8647 88.1496 16.8647C88.8248 16.8647 89.3213 16.5987 89.639 16.066C89.9568 15.5336 90.1156 14.7878 90.1156 13.8292ZM95.0477 17.2643C94.9543 16.9981 94.8945 16.7184 94.8679 16.4254C94.8411 16.1327 94.828 15.8399 94.828 15.5466V6.28033C94.921 6.26726 95.0209 6.25386 95.1276 6.24039C95.2204 6.22733 95.3204 6.21739 95.427 6.21046C95.5335 6.20392 95.6399 6.20052 95.7465 6.20052C95.9594 6.20052 96.1726 6.22053 96.3857 6.26039C96.5984 6.3004 96.7916 6.38027 96.9649 6.50001C97.1378 6.61981 97.2775 6.78309 97.3842 6.9893C97.4907 7.19584 97.5439 7.46552 97.5439 7.79807V9.21594H100.34V11.2331H97.5439V15.4918C97.5439 16.4205 97.9234 16.8847 98.6823 16.8847C98.8687 16.8847 99.0449 16.8549 99.2116 16.7948C99.3779 16.735 99.5276 16.6685 99.6609 16.5952C99.7939 16.522 99.9105 16.4455 100.01 16.3656C100.11 16.2856 100.18 16.2258 100.22 16.1859C100.42 16.479 100.573 16.7326 100.679 16.9467C100.786 17.1611 100.839 17.3622 100.839 17.5501C100.839 17.725 100.769 17.8965 100.629 18.0644C100.489 18.2323 100.293 18.3871 100.04 18.5281C99.7873 18.6691 99.4812 18.7833 99.1216 18.8707C98.7622 18.9581 98.3693 19.0018 97.9434 19.0018C97.1177 19.0018 96.4754 18.8419 96.0161 18.5225C95.5568 18.2028 95.2338 17.7834 95.0477 17.2643ZM107.219 17.0046C107.553 17.0046 107.847 16.9681 108.101 16.8947C108.354 16.8218 108.581 16.7318 108.782 16.6253C108.982 16.5189 109.156 16.4024 109.303 16.2758C109.45 16.1494 109.583 16.0329 109.704 15.9262C109.864 16.1258 110.031 16.3824 110.205 16.695C110.378 17.0081 110.465 17.2643 110.465 17.4639C110.465 17.7569 110.299 18.0232 109.966 18.2628C109.687 18.4759 109.29 18.659 108.778 18.8119C108.265 18.9649 107.663 19.0416 106.971 19.0416C106.344 19.0416 105.729 18.9618 105.123 18.8019C104.517 18.6423 103.978 18.3626 103.506 17.9631C103.033 17.5639 102.65 17.0281 102.357 16.3556C102.064 15.6833 101.918 14.8347 101.918 13.8093C101.918 12.9705 102.048 12.2485 102.307 11.6425C102.567 11.0368 102.913 10.5342 103.346 10.1348C103.778 9.73537 104.268 9.44268 104.814 9.25601C105.359 9.0698 105.919 8.97646 106.491 8.97646C107.237 8.97646 107.869 9.0932 108.388 9.32594C108.908 9.55902 109.33 9.87197 109.657 10.2646C109.983 10.6573 110.219 11.1067 110.365 11.6126C110.512 12.1187 110.585 12.651 110.585 13.2102V13.4897C110.585 13.5966 110.582 13.7094 110.575 13.8292C110.568 13.9492 110.562 14.0658 110.555 14.1787C110.548 14.2921 110.538 14.3819 110.525 14.4484H104.634C104.687 15.1807 104.914 15.7897 105.315 16.2758C105.716 16.7619 106.35 17.0046 107.219 17.0046ZM108.129 12.9505C108.129 12.3115 108.005 11.7923 107.757 11.3928C107.509 10.9935 107.064 10.7937 106.422 10.7937C105.872 10.7937 105.434 10.9835 105.106 11.3629C104.778 11.7424 104.614 12.2716 104.614 12.9505L108.129 12.9505ZM115.312 10.1852C115.391 10.0664 115.498 9.93437 115.631 9.7889C115.764 9.64356 115.927 9.51149 116.12 9.39268C116.313 9.27381 116.526 9.17454 116.759 9.09533C116.992 9.01606 117.242 8.97646 117.508 8.97646C117.668 8.97646 117.838 8.98986 118.018 9.01606C118.197 9.0426 118.364 9.0922 118.517 9.1646C118.67 9.23734 118.793 9.33621 118.886 9.46168C118.979 9.58716 119.026 9.74223 119.026 9.92697C119.026 10.2175 118.953 10.5511 118.806 10.9277C118.66 11.3046 118.514 11.6261 118.367 11.8922C118.141 11.7059 117.914 11.5627 117.688 11.4629C117.462 11.363 117.195 11.313 116.889 11.313C116.476 11.313 116.13 11.4332 115.851 11.6735C115.571 11.9137 115.431 12.2008 115.431 12.5346V18.9996H112.715V9.25594C112.782 9.24287 112.862 9.22947 112.955 9.21607C113.035 9.20301 113.128 9.19294 113.235 9.18607C113.341 9.17954 113.467 9.17614 113.614 9.17614C114.04 9.17614 114.409 9.25874 114.722 9.42362C115.035 9.58829 115.232 9.8423 115.312 10.1852ZM123.034 10.1852C123.113 10.0664 123.22 9.93437 123.353 9.7889C123.486 9.64356 123.649 9.51149 123.842 9.39268C124.035 9.27381 124.248 9.17454 124.481 9.09533C124.714 9.01606 124.964 8.97646 125.23 8.97646C125.39 8.97646 125.56 8.98986 125.739 9.01606C125.919 9.0426 126.086 9.0922 126.239 9.1646C126.392 9.23734 126.515 9.33621 126.608 9.46168C126.701 9.58716 126.748 9.74223 126.748 9.92697C126.748 10.2175 126.675 10.5511 126.528 10.9277C126.382 11.3046 126.235 11.6261 126.089 11.8922C125.863 11.7059 125.636 11.5627 125.41 11.4629C125.184 11.363 124.917 11.313 124.611 11.313C124.198 11.313 123.852 11.4332 123.573 11.6735C123.293 11.9137 123.153 12.2008 123.153 12.5346V18.9996H120.437V9.25594C120.504 9.24287 120.584 9.22947 120.677 9.21607C120.757 9.20301 120.85 9.19294 120.957 9.18607C121.063 9.17954 121.189 9.17614 121.336 9.17614C121.762 9.17614 122.131 9.25874 122.444 9.42362C122.757 9.58829 122.954 9.8423 123.034 10.1852ZM135.995 16.3854C135.995 17.4373 136.148 18.2028 136.454 18.6821C136.214 18.7751 135.991 18.8418 135.785 18.8817C135.578 18.9217 135.362 18.9416 135.136 18.9416C134.657 18.9416 134.294 18.8484 134.048 18.6621C133.801 18.4759 133.645 18.2096 133.578 17.8632C133.285 18.1698 132.899 18.4293 132.42 18.6423C131.941 18.8549 131.355 18.9618 130.663 18.9618C130.303 18.9618 129.944 18.9119 129.584 18.8127C129.225 18.7127 128.898 18.5504 128.605 18.3251C128.312 18.0992 128.073 17.7973 127.887 17.419C127.7 17.0407 127.607 16.5796 127.607 16.0356C127.607 15.3588 127.77 14.8078 128.096 14.3833C128.422 13.9584 128.832 13.6234 129.325 13.3778C129.817 13.1325 130.349 12.9636 130.922 12.8705C131.494 12.7774 132.021 12.7179 132.5 12.691C132.66 12.6779 132.816 12.671 132.969 12.671H133.399V12.3076C133.399 11.7958 133.262 11.4322 132.989 11.217C132.716 11.0016 132.273 10.8937 131.661 10.8937C131.088 10.8937 130.579 10.987 130.133 11.1732C129.687 11.3598 129.251 11.5727 128.825 11.8123C128.639 11.5861 128.489 11.3365 128.376 11.0634C128.263 10.7908 128.206 10.5876 128.206 10.4543C128.206 10.2681 128.309 10.0883 128.516 9.91511C128.722 9.7423 129.005 9.58562 129.364 9.44582C129.724 9.30601 130.136 9.19307 130.603 9.10633C131.068 9.01986 131.561 8.97653 132.08 8.97653C132.799 8.97653 133.408 9.04986 133.908 9.19621C134.407 9.34288 134.813 9.56909 135.126 9.87517C135.439 10.1817 135.662 10.5642 135.795 11.0235C135.928 11.4829 135.995 12.0189 135.995 12.6311V16.3854ZM133.438 14.0689H133.159C133.065 14.0689 132.972 14.0758 132.879 14.089C132.546 14.1158 132.217 14.1556 131.891 14.2087C131.564 14.2621 131.275 14.3553 131.022 14.4883C130.769 14.6215 130.563 14.7947 130.403 15.0075C130.243 15.2206 130.163 15.4937 130.163 15.8264C130.163 16.1992 130.27 16.5152 130.483 16.7749C130.696 17.0346 131.055 17.1644 131.561 17.1644C131.814 17.1644 132.054 17.1313 132.28 17.0644C132.506 16.9981 132.706 16.9115 132.879 16.805C133.052 16.6984 133.189 16.582 133.289 16.4554C133.388 16.329 133.438 16.2126 133.438 16.106L133.438 14.0689Z" fill="#044D80"/>
</svg>
