<svg width="33" height="33" viewBox="0 0 33 33" fill="none" xmlns="http://www.w3.org/2000/svg">
<path d="M12.5001 26.9692C12.2256 26.9692 11.954 26.9642 11.6855 26.9542M5.54331 20.3026C4.0654 19.5949 3.16675 18.6604 3.16675 17.6359C3.16675 16.6114 4.0654 15.6769 5.54331 14.9692M5.54331 20.3026C4.0654 21.0102 3.16675 21.9448 3.16675 22.9692C3.16675 25.0608 6.9123 26.7774 11.6855 26.9542M5.54331 20.3026C7.08262 21.0397 9.25033 21.5307 11.6855 21.6209M5.54331 14.9692C7.2523 15.7876 9.73586 16.3026 12.5001 16.3026C15.2643 16.3026 17.7479 15.7876 19.4569 14.9692M5.54331 14.9692C4.0654 14.2616 3.16675 13.327 3.16675 12.3026C3.16675 11.2781 4.0654 10.3436 5.54331 9.63591M19.4569 14.9692C20.9348 14.2616 21.8334 13.327 21.8334 12.3026C21.8334 11.2781 20.9348 10.3436 19.4569 9.63591M19.4569 14.9692C20.2684 15.3578 20.9053 15.8149 21.3146 16.3176M19.4569 9.63591C20.9348 8.92823 21.8334 7.99371 21.8334 6.96924C21.8334 4.7601 17.6547 2.96924 12.5001 2.96924C7.34542 2.96924 3.16675 4.7601 3.16675 6.96924C3.16675 7.99371 4.0654 8.92823 5.54331 9.63591M19.4569 9.63591C17.7479 10.4542 15.2643 10.9692 12.5001 10.9692C9.73586 10.9692 7.2523 10.4542 5.54331 9.63591M27.4569 22.9692C28.9348 22.2616 29.8334 21.327 29.8334 20.3026C29.8334 18.2111 26.0879 16.4945 21.3146 16.3176M27.4569 22.9692C25.7479 23.7876 23.2643 24.3026 20.5001 24.3026C17.7359 24.3026 15.2523 23.7876 13.5433 22.9692M27.4569 22.9692C28.9348 23.6769 29.8334 24.6114 29.8334 25.6359C29.8334 26.6604 28.9348 27.5949 27.4569 28.3026C25.7479 29.1209 23.2643 29.6359 20.5001 29.6359C17.7359 29.6359 15.2523 29.1209 13.5433 28.3026C12.7317 27.914 12.0949 27.457 11.6855 26.9542M13.5433 22.9692C12.0654 23.6769 11.1667 24.6114 11.1667 25.6359C11.1667 26.0978 11.3494 26.5414 11.6855 26.9542M13.5433 22.9692C12.7317 22.5806 12.0949 22.1236 11.6855 21.6209M21.3146 16.3176C21.0462 16.3076 20.7745 16.3026 20.5001 16.3026C15.3454 16.3026 11.1667 18.0934 11.1667 20.3026C11.1667 20.7645 11.3494 21.2081 11.6855 21.6209" stroke="#4875FF" stroke-width="2"/>
</svg>
