<svg width="14" height="17" viewBox="0 0 14 17" fill="none" xmlns="http://www.w3.org/2000/svg">
<path d="M5.552 6.91805C5.096 6.91805 4.736 7.31805 4.736 7.80605C4.736 8.29405 5.104 8.69405 5.552 8.69405C6.008 8.69405 6.368 8.29405 6.368 7.80605C6.376 7.31805 6.008 6.91805 5.552 6.91805ZM8.472 6.91805C8.016 6.91805 7.656 7.31805 7.656 7.80605C7.656 8.29405 8.024 8.69405 8.472 8.69405C8.928 8.69405 9.288 8.29405 9.288 7.80605C9.288 7.31805 8.928 6.91805 8.472 6.91805Z" fill="white"/>
<path d="M12.36 0.206055H1.64C0.736 0.206055 0 0.942055 0 1.85405V12.6701C0 13.5821 0.736 14.3181 1.64 14.3181H10.712L10.288 12.8381L11.312 13.7901L12.28 14.6861L14 16.2061V1.85405C14 0.942055 13.264 0.206055 12.36 0.206055ZM9.272 10.6541C9.272 10.6541 8.984 10.3101 8.744 10.0061C9.792 9.71005 10.192 9.05406 10.192 9.05406C9.864 9.27005 9.552 9.42205 9.272 9.52605C8.872 9.69405 8.488 9.80606 8.112 9.87005C7.344 10.0141 6.64 9.97405 6.04 9.86205C5.584 9.77405 5.192 9.64605 4.864 9.51805C4.68 9.44605 4.48 9.35805 4.28 9.24605C4.256 9.23005 4.232 9.22205 4.208 9.20605C4.192 9.19805 4.184 9.19005 4.176 9.18205C4.032 9.10205 3.952 9.04605 3.952 9.04605C3.952 9.04605 4.336 9.68606 5.352 9.99006C5.112 10.2941 4.816 10.6541 4.816 10.6541C3.048 10.5981 2.376 9.43805 2.376 9.43805C2.376 6.86205 3.528 4.77405 3.528 4.77405C4.68 3.91005 5.776 3.93405 5.776 3.93405L5.856 4.03005C4.416 4.44605 3.752 5.07805 3.752 5.07805C3.752 5.07805 3.928 4.98205 4.224 4.84605C5.08 4.47005 5.76 4.36605 6.04 4.34205C6.088 4.33405 6.128 4.32605 6.176 4.32605C6.664 4.26205 7.216 4.24605 7.792 4.31005C8.552 4.39806 9.368 4.62205 10.2 5.07805C10.2 5.07805 9.568 4.47805 8.208 4.06205L8.32 3.93405C8.32 3.93405 9.416 3.91005 10.568 4.77405C10.568 4.77405 11.72 6.86205 11.72 9.43805C11.72 9.43805 11.04 10.5981 9.272 10.6541Z" fill="white"/>
</svg>
