<svg width="19" height="19" viewBox="0 0 19 19" fill="none" xmlns="http://www.w3.org/2000/svg">
<g clip-path="url(#clip0_1_5490)">
<path fill-rule="evenodd" clip-rule="evenodd" d="M9.01782 2.95703C5.18635 2.95703 2.08032 6.06306 2.08032 9.89453C2.08032 13.726 5.18635 16.832 9.01782 16.832C12.8493 16.832 15.9553 13.726 15.9553 9.89453C15.9553 6.06306 12.8493 2.95703 9.01782 2.95703ZM0.955322 9.89453C0.955322 5.44174 4.56503 1.83203 9.01782 1.83203C13.4706 1.83203 17.0803 5.44174 17.0803 9.89453C17.0803 14.3474 13.4706 17.957 9.01782 17.957C4.56503 17.957 0.955322 14.3474 0.955322 9.89453ZM9.01782 4.83203C9.32847 4.83203 9.58032 5.08387 9.58032 5.39453V5.63208C10.8031 5.85103 11.8303 6.76974 11.8303 8.01953C11.8303 8.33019 11.5785 8.58203 11.2678 8.58203C10.9572 8.58203 10.7053 8.33019 10.7053 8.01953C10.7053 7.38633 10.0502 6.70703 9.01782 6.70703C7.98545 6.70703 7.33032 7.38633 7.33032 8.01953C7.33032 8.65276 7.98545 9.33203 9.01782 9.33203C10.4707 9.33203 11.8303 10.3316 11.8303 11.7695C11.8303 13.0193 10.8031 13.938 9.58032 14.157V14.3945C9.58032 14.7052 9.32847 14.957 9.01782 14.957C8.70717 14.957 8.45532 14.7052 8.45532 14.3945V14.157C7.2325 13.938 6.20532 13.0193 6.20532 11.7695C6.20532 11.4589 6.45716 11.207 6.76782 11.207C7.07848 11.207 7.33032 11.4589 7.33032 11.7695C7.33032 12.4028 7.98545 13.082 9.01782 13.082C10.0502 13.082 10.7053 12.4028 10.7053 11.7695C10.7053 11.1363 10.0502 10.457 9.01782 10.457C7.56492 10.457 6.20532 9.45743 6.20532 8.01953C6.20532 6.76974 7.2325 5.85103 8.45532 5.63208V5.39453C8.45532 5.08387 8.70717 4.83203 9.01782 4.83203Z" fill="#6A737E"/>
</g>
<defs>
<clipPath id="clip0_1_5490">
<rect width="18" height="18" fill="white" transform="translate(0.0185547 0.89502)"/>
</clipPath>
</defs>
</svg>
