<svg width="18" height="18" viewBox="0 0 18 18" fill="none" xmlns="http://www.w3.org/2000/svg">
<path d="M9.00056 2.40625C11.2006 2.40625 11.5006 2.40625 12.4006 2.40625C13.2006 2.40625 13.6006 2.60625 13.9006 2.70625C14.3006 2.90625 14.6006 3.00625 14.9006 3.30625C15.2006 3.60625 15.4006 3.90625 15.5006 4.30625C15.6006 4.60625 15.7006 5.00625 15.8006 5.80625C15.8006 6.70625 15.8006 6.90625 15.8006 9.20625C15.8006 11.5063 15.8006 11.7063 15.8006 12.6062C15.8006 13.4062 15.6006 13.8062 15.5006 14.1062C15.3006 14.5062 15.2006 14.8062 14.9006 15.1062C14.6006 15.4062 14.3006 15.6062 13.9006 15.7063C13.6006 15.8063 13.2006 15.9062 12.4006 16.0062C11.5006 16.0062 11.3006 16.0062 9.00056 16.0062C6.70056 16.0062 6.50056 16.0062 5.60056 16.0062C4.80056 16.0062 4.40056 15.8063 4.10056 15.7063C3.70056 15.5063 3.40056 15.4062 3.10056 15.1062C2.80056 14.8062 2.60056 14.5062 2.50056 14.1062C2.40056 13.8062 2.30056 13.4062 2.20056 12.6062C2.20056 11.7063 2.20056 11.5063 2.20056 9.20625C2.20056 6.90625 2.20056 6.70625 2.20056 5.80625C2.20056 5.00625 2.40056 4.60625 2.50056 4.30625C2.70056 3.90625 2.80056 3.60625 3.10056 3.30625C3.40056 3.00625 3.70056 2.80625 4.10056 2.70625C4.40056 2.60625 4.80056 2.50625 5.60056 2.40625C6.50056 2.40625 6.80056 2.40625 9.00056 2.40625ZM9.00056 0.90625C6.70056 0.90625 6.50056 0.90625 5.60056 0.90625C4.70056 0.90625 4.10056 1.10625 3.60056 1.30625C3.10056 1.50625 2.60056 1.80625 2.10056 2.30625C1.60056 2.80625 1.40056 3.20625 1.10056 3.80625C0.900562 4.30625 0.800562 4.90625 0.700562 5.80625C0.700562 6.70625 0.700562 7.00625 0.700562 9.20625C0.700562 11.5063 0.700562 11.7063 0.700562 12.6062C0.700562 13.5062 0.900562 14.1062 1.10056 14.6062C1.30056 15.1062 1.60056 15.6062 2.10056 16.1062C2.60056 16.6062 3.00056 16.8063 3.60056 17.1063C4.10056 17.3063 4.70056 17.4062 5.60056 17.5062C6.50056 17.5062 6.80056 17.5062 9.00056 17.5062C11.2006 17.5062 11.5006 17.5062 12.4006 17.5062C13.3006 17.5062 13.9006 17.3063 14.4006 17.1063C14.9006 16.9062 15.4006 16.6062 15.9006 16.1062C16.4006 15.6062 16.6006 15.2063 16.9006 14.6062C17.1006 14.1062 17.2006 13.5062 17.3006 12.6062C17.3006 11.7063 17.3006 11.4062 17.3006 9.20625C17.3006 7.00625 17.3006 6.70625 17.3006 5.80625C17.3006 4.90625 17.1006 4.30625 16.9006 3.80625C16.7006 3.30625 16.4006 2.80625 15.9006 2.30625C15.4006 1.80625 15.0006 1.60625 14.4006 1.30625C13.9006 1.10625 13.3006 1.00625 12.4006 0.90625C11.5006 0.90625 11.3006 0.90625 9.00056 0.90625Z" fill="white"/>
<path d="M9.00056 4.90625C6.60056 4.90625 4.70056 6.80625 4.70056 9.20625C4.70056 11.6063 6.60056 13.5062 9.00056 13.5062C11.4006 13.5062 13.3006 11.6063 13.3006 9.20625C13.3006 6.80625 11.4006 4.90625 9.00056 4.90625ZM9.00056 12.0062C7.50056 12.0062 6.20056 10.8062 6.20056 9.20625C6.20056 7.70625 7.40056 6.40625 9.00056 6.40625C10.5006 6.40625 11.8006 7.60625 11.8006 9.20625C11.8006 10.7063 10.5006 12.0062 9.00056 12.0062Z" fill="white"/>
<path d="M13.4006 5.80625C13.9528 5.80625 14.4006 5.35854 14.4006 4.80625C14.4006 4.25397 13.9528 3.80625 13.4006 3.80625C12.8483 3.80625 12.4006 4.25397 12.4006 4.80625C12.4006 5.35854 12.8483 5.80625 13.4006 5.80625Z" fill="white"/>
</svg>
