<svg width="16" height="17" viewBox="0 0 16 17" fill="none" xmlns="http://www.w3.org/2000/svg">
<path d="M3.60001 16.2061H0.199997V5.50605H3.60001V16.2061ZM1.9 4.00605C0.800002 4.00605 0 3.20605 0 2.10605C0 1.00605 0.900002 0.206055 1.9 0.206055C3 0.206055 3.8 1.00605 3.8 2.10605C3.8 3.20605 3 4.00605 1.9 4.00605ZM16 16.2061H12.6V10.4061C12.6 8.70606 11.9 8.20605 10.9 8.20605C9.89999 8.20605 8.89999 9.00605 8.89999 10.5061V16.2061H5.5V5.50605H8.7V7.00605C9 6.30606 10.2 5.20605 11.9 5.20605C13.8 5.20605 15.8 6.30605 15.8 9.60605V16.2061H16Z" fill="white"/>
</svg>
