<svg width="187" height="31" viewBox="0 0 187 31" fill="none" xmlns="http://www.w3.org/2000/svg">
<path d="M50.2957 23.2132H41.8393V6.81066H49.834C51.3082 6.81066 52.5394 7.24806 53.5276 8.12286C54.5158 8.96526 55.0099 10.0345 55.0099 11.3305C55.0099 12.6751 54.4996 13.7686 53.479 14.611C54.9532 15.5344 55.6903 16.8304 55.6903 18.499C55.6903 19.8598 55.1719 20.9857 54.1351 21.8767C53.0983 22.7677 51.8185 23.2132 50.2957 23.2132ZM50.2714 16.3363H45.3142V20.0299H50.2714C50.7736 20.0299 51.1948 19.8517 51.535 19.4953C51.8914 19.1389 52.0696 18.7015 52.0696 18.1831C52.0696 17.6647 51.8914 17.2273 51.535 16.8709C51.1948 16.5145 50.7736 16.3363 50.2714 16.3363ZM49.7854 10.0183H45.3142V13.2988H49.7854C50.2066 13.2988 50.563 13.1692 50.8546 12.91C51.1624 12.6508 51.3406 12.3106 51.3892 11.8894C51.4054 11.857 51.4135 11.776 51.4135 11.6464C51.4135 11.1766 51.2596 10.7878 50.9518 10.48C50.644 10.1722 50.2552 10.0183 49.7854 10.0183ZM57.715 6.81066H61.1899V20.0299H69.2575V23.2132H57.715V6.81066ZM73.6041 23.2132H69.9834L76.9332 6.81066H79.7763L86.7261 23.2132H83.1054L81.9147 20.3215H74.7948L73.6041 23.2132ZM80.6268 17.1868L78.3669 11.7436L76.107 17.1868H80.6268ZM95.4965 6.51906C97.1975 6.51906 98.7365 6.94026 100.114 7.78266C101.491 8.60886 102.527 9.73476 103.224 11.1604L99.8705 12.3997C99.4331 11.6059 98.8337 10.9822 98.0723 10.5286C97.3109 10.075 96.4523 9.84816 95.4965 9.84816C94.0547 9.84816 92.864 10.3423 91.9244 11.3305C90.9848 12.3187 90.515 13.5418 90.515 14.9998C90.515 16.474 90.9848 17.7052 91.9244 18.6934C92.864 19.6816 94.0547 20.1757 95.4965 20.1757C96.4523 20.1757 97.3109 19.9489 98.0723 19.4953C98.8337 19.0417 99.4331 18.418 99.8705 17.6242L103.224 18.8635C102.527 20.2891 101.491 21.4231 100.114 22.2655C98.7365 23.0917 97.1975 23.5048 95.4965 23.5048C93.0341 23.5048 90.9848 22.6948 89.3486 21.0748C87.7124 19.4386 86.8943 17.4217 86.8943 15.0241C86.8943 12.6265 87.7124 10.6096 89.3486 8.97336C91.0172 7.33716 93.0665 6.51906 95.4965 6.51906ZM105.128 23.2132V6.81066H108.603V13.7362L114.338 6.81066H118.736L112.103 14.8297L119.198 23.2132H114.8L108.603 15.8989V23.2132H105.128ZM124.076 17.6971V23.2132H120.601V6.81066H128.012C129.681 6.81066 131.066 7.32906 132.167 8.36586C133.285 9.40266 133.844 10.6987 133.844 12.2539C133.844 13.7929 133.285 15.0889 132.167 16.1419C131.066 17.1787 129.681 17.6971 128.012 17.6971H124.076ZM128.012 10.0183H124.076V14.5138H128.012C128.644 14.5138 129.17 14.3032 129.592 13.882C130.029 13.4446 130.248 12.9019 130.248 12.2539C130.248 11.6059 130.029 11.0713 129.592 10.6501C129.17 10.2289 128.644 10.0183 128.012 10.0183ZM146.127 16.5793V6.81066H149.602V16.5793C149.602 18.5233 148.905 20.1676 147.512 21.5122C146.135 22.8406 144.418 23.5048 142.361 23.5048C140.303 23.5048 138.586 22.8406 137.209 21.5122C135.832 20.1838 135.143 18.5395 135.143 16.5793V6.81066H138.618V16.5793C138.618 17.6485 138.975 18.5395 139.688 19.2523C140.4 19.9651 141.291 20.3215 142.361 20.3215C143.446 20.3215 144.345 19.9651 145.058 19.2523C145.771 18.5395 146.127 17.6485 146.127 16.5793ZM155.28 23.2132H151.854V6.81066H155.28L160.942 16.8223L166.628 6.81066H170.054V23.2132H166.628V13.2502L162.084 21.415H159.8L155.28 13.2988V23.2132ZM175.95 17.6971V23.2132H172.475V6.81066H179.887C181.556 6.81066 182.941 7.32906 184.042 8.36586C185.16 9.40266 185.719 10.6987 185.719 12.2539C185.719 13.7929 185.16 15.0889 184.042 16.1419C182.941 17.1787 181.556 17.6971 179.887 17.6971H175.95ZM179.887 10.0183H175.95V14.5138H179.887C180.519 14.5138 181.045 14.3032 181.466 13.882C181.904 13.4446 182.123 12.9019 182.123 12.2539C182.123 11.6059 181.904 11.0713 181.466 10.6501C181.045 10.2289 180.519 10.0183 179.887 10.0183Z" fill="black"/>
<g clip-path="url(#clip0_1_5400)">
<path fill-rule="evenodd" clip-rule="evenodd" d="M4.54893 26.2102L0.758789 30H10.2908L14.0806 26.2102L17.9776 22.3131L16.0211 20.3566L20.2333 19.5256L24.4456 18.6949L23.615 22.9072L22.7843 27.1195L20.8277 25.1633L15.9913 29.9997H22.7567C27.5973 29.9997 31.558 26.0393 31.558 21.1987C31.558 18.3203 30.1574 15.7532 28.0041 14.1447C29.9589 13.024 31.2833 10.9158 31.2833 8.51227V7.49991C31.284 3.375 27.909 0 23.7841 0H8.98591V16.0726L15.6761 9.38275L13.7196 7.42618L17.9318 6.59518L22.1441 5.76454L21.3135 9.97682L20.4825 14.1891L18.5263 12.2329L8.98556 21.7725L4.54858 26.2099L4.54893 26.2102Z" fill="black"/>
</g>
<defs>
<clipPath id="clip0_1_5400">
<rect width="30.7995" height="30" fill="white" transform="translate(0.758789)"/>
</clipPath>
</defs>
</svg>
