<svg width="24" height="24" viewBox="0 0 24 24" fill="none" xmlns="http://www.w3.org/2000/svg">
<path d="M15.9454 23C16.5404 22.9189 17.0035 22.834 17.4968 22.654C20.4596 21.576 22.3243 19.5152 22.9197 16.3918C23.0768 15.3846 22.9647 14.0702 22.4204 13.0443C22.3804 12.9663 22.3304 12.8936 22.2517 12.7656C22.5477 15.5417 21.6563 17.8371 19.7529 19.7432C17.8495 21.6493 15.5528 22.5433 12.7693 22.2526C13.2785 22.5725 13.8885 22.8032 14.4864 22.9189C14.7138 22.9629 14.9999 23 14.9954 23C14.9954 23 15.2599 23 15.4454 23C15.6309 23 15.9454 23 15.9454 23Z" fill="#4875FF"/>
<path d="M21.434 13.8484C21.448 11.3969 19.8219 9.45355 17.4032 9.0722C15.9904 8.84952 14.6391 9.1542 13.3944 9.81689C10.9749 11.1056 9.47154 13.0897 9.06086 15.8331C8.65484 18.5405 10.3209 20.886 13.0057 21.3753C14.3204 21.6153 15.5898 21.3433 16.7678 20.7753C19.4672 19.4686 21.0653 17.3325 21.4347 14.3251C21.4439 14.1663 21.4437 14.0071 21.434 13.8484ZM20.5946 13.9024C20.5366 14.3131 20.5013 14.7291 20.4153 15.1338C19.9446 17.3545 17.7772 20.2099 14.3097 20.534C12.901 20.6673 11.681 20.2559 10.7663 19.1486C9.91956 18.1219 9.74355 16.9065 9.97756 15.6344C10.5196 12.685 12.9937 10.3062 15.9725 9.93089C18.6879 9.58955 20.5766 11.4269 20.5946 13.9024Z" fill="#4875FF"/>
<g opacity="0.48">
<path d="M10.7457 16.5038C10.7384 18.5105 12.2698 19.8939 14.2685 19.6706C16.86 19.3806 19.1794 17.2038 19.6294 14.6297C19.7323 14.0792 19.7118 13.5127 19.5694 12.971C19.188 11.5543 17.8407 10.6629 16.3746 10.7709C13.3192 10.9923 11.2777 13.5757 10.8744 15.5918C10.8124 15.8918 10.7884 16.1998 10.7457 16.5038ZM14.6125 12.3996L14.5699 12.3523C14.6812 12.2336 14.7745 12.0856 14.9085 12.0036C15.0739 11.9036 15.2506 11.9696 15.3806 12.111C15.4329 12.1754 15.4762 12.2468 15.5092 12.323C16.0599 13.4223 16.6146 14.5231 17.154 15.6264C17.2206 15.7638 17.2613 15.9598 17.214 16.0931C17.1713 16.2105 17.0006 16.3178 16.8653 16.3598C16.6826 16.4151 16.5219 16.3091 16.4359 16.1371C15.8412 14.9571 15.2499 13.7755 14.6619 12.5923C14.6386 12.53 14.6221 12.4654 14.6125 12.3996ZM14.9739 17.6978C14.9219 17.6645 14.7672 17.6205 14.7145 17.5218C14.3812 16.8991 14.0639 16.2691 13.7625 15.6311C13.6632 15.4204 13.7905 15.1877 13.9998 15.0937C14.0464 15.0692 14.0974 15.0542 14.1497 15.0494C14.2021 15.0446 14.255 15.0502 14.3052 15.0659C14.3554 15.0816 14.4021 15.107 14.4424 15.1407C14.4828 15.1744 14.5162 15.2158 14.5405 15.2624C14.8599 15.8731 15.1719 16.4878 15.4639 17.1125C15.5919 17.3938 15.3552 17.7032 14.9712 17.6998L14.9739 17.6978Z" fill="#4875FF"/>
<path d="M18.146 15.5331L17.0793 12.333L15.4792 11.7996H14.4125L13.3458 14.9997V17.1332L13.8792 18.7332H15.4792L17.6127 17.6665L18.146 15.5331Z" fill="#4875FF"/>
</g>
<path opacity="0.48" d="M1.41236 6.78143C1.03128 7.33973 0.955333 7.92201 1.02196 8.5316C1.13188 9.54093 1.53695 10.4397 2.1039 11.2631C3.1572 12.7954 4.5223 13.9334 6.31644 14.5023C6.96867 14.7088 7.6369 14.7841 8.30712 14.5849C8.50111 14.5198 8.68603 14.4302 8.85742 14.3184C6.83077 14.1805 5.23316 13.2045 3.84475 11.8281C2.45634 10.4517 1.5556 8.82874 1.41236 6.78143Z" fill="#4875FF"/>
<path d="M10.9997 11.1611C11.0077 10.6328 10.8664 10.0859 10.6419 9.5622C9.62792 7.18245 7.90573 5.57352 5.41272 4.83201C4.90158 4.66916 4.35615 4.64615 3.83311 4.76539C2.81312 5.01189 2.2295 5.89797 2.32077 7.03721C2.40738 8.12116 2.82644 9.08652 3.43271 9.96394C4.50333 11.5122 5.89773 12.6548 7.72518 13.2084C8.27215 13.3743 8.83312 13.439 9.40141 13.3317C10.4254 13.1385 11.007 12.3617 10.9997 11.1611ZM8.42406 9.03855C8.35743 9.02123 8.27216 9.00058 8.18555 8.97193L5.91172 8.2131C5.46202 8.0632 5.01032 7.91996 4.56462 7.76007C4.30746 7.66746 4.20285 7.43695 4.28413 7.2031C4.36541 6.96926 4.58794 6.86133 4.84776 6.93262C4.89573 6.94594 4.94237 6.9626 4.98967 6.97859C6.09383 7.34634 7.19776 7.71454 8.30147 8.08319C8.42193 8.11495 8.53906 8.15823 8.65124 8.21243C8.73905 8.25444 8.80886 8.32657 8.84799 8.4157C8.88711 8.50483 8.89295 8.60504 8.86443 8.69811C8.8138 8.90864 8.6619 9.01124 8.42406 9.03855ZM8.12092 11.2091C8.07599 11.2079 8.03131 11.2019 7.98768 11.1911C7.35809 10.9813 6.72651 10.7767 6.1016 10.5549C6.04803 10.5365 5.99872 10.5076 5.95662 10.4697C5.91453 10.4319 5.88052 10.3859 5.85662 10.3345C5.83273 10.2832 5.81945 10.2276 5.81759 10.171C5.81572 10.1144 5.82531 10.058 5.84577 10.0052C5.91239 9.80538 6.13491 9.65814 6.33811 9.72276C7.00433 9.93262 7.66456 10.1505 8.32013 10.389C8.52999 10.4649 8.60727 10.6608 8.55064 10.8833C8.49867 11.0916 8.35543 11.2002 8.12092 11.2091Z" fill="#4875FF"/>
<path d="M9.04298 8.44695L8.51 7.91397L6.97119 7.40103L4.24617 6.31503L3.71319 6.84801V8.44695L4.77915 10.0459L6.37809 11.6448L7.97702 12.1778L9.04298 11.6448V8.44695Z" fill="#4875FF"/>
<path opacity="0.48" d="M16.2534 6.74635C16.588 6.97474 16.937 7.02026 17.3023 6.98033C17.9073 6.91445 18.4459 6.67168 18.9394 6.33189C19.8578 5.70061 20.5398 4.88247 20.8808 3.80719C21.0046 3.41629 21.0497 3.0158 20.9303 2.61411C20.8912 2.49785 20.8376 2.38702 20.7706 2.2843C20.6879 3.49894 20.103 4.45643 19.278 5.28855C18.4531 6.12067 17.4804 6.6605 16.2534 6.74635Z" fill="#4875FF"/>
<path d="M18.8782 1.00019C18.5616 0.995402 18.2338 1.08005 17.9199 1.21461C16.4937 1.82233 15.5294 2.85449 15.085 4.34862C14.9874 4.65497 14.9736 4.98186 15.045 5.29534C15.1928 5.90665 15.7238 6.25643 16.4066 6.20172C17.0563 6.14982 17.6348 5.89866 18.1607 5.53531C19.0886 4.89365 19.7734 4.05794 20.1052 2.9627C20.2046 2.63488 20.2434 2.29868 20.1791 1.95809C20.0633 1.34438 19.5977 0.995801 18.8782 1.00019ZM17.6061 2.54384C17.5957 2.58377 17.5833 2.63488 17.5661 2.68679L17.1114 4.04956C17.0215 4.31908 16.9357 4.58979 16.8398 4.85692C16.7843 5.01104 16.6462 5.07373 16.506 5.02502C16.3659 4.97631 16.3012 4.84294 16.3439 4.68722C16.3519 4.65847 16.3619 4.63052 16.3715 4.60217C16.5919 3.94042 16.8126 3.2788 17.0335 2.61731C17.0525 2.54511 17.0785 2.47491 17.111 2.40768C17.1361 2.35506 17.1794 2.31321 17.2328 2.28976C17.2862 2.26632 17.3463 2.26282 17.402 2.27991C17.5282 2.31026 17.5897 2.40129 17.6061 2.54384ZM18.907 2.72552C18.9062 2.75245 18.9026 2.77922 18.8962 2.80538C18.7704 3.1827 18.6478 3.56123 18.5149 3.93576C18.5039 3.96787 18.4865 3.99742 18.4638 4.02265C18.4411 4.04788 18.4136 4.06826 18.3828 4.08258C18.352 4.0969 18.3187 4.10486 18.2848 4.10598C18.2509 4.10709 18.2171 4.10135 18.1854 4.08909C18.0657 4.04916 17.9774 3.9158 18.0161 3.79401C18.1419 3.39472 18.2725 2.99903 18.4154 2.60613C18.4609 2.48035 18.5783 2.43404 18.7117 2.46798C18.8365 2.49912 18.9016 2.58497 18.907 2.72552Z" fill="#4875FF"/>
<path d="M17.2515 2.1729L16.9321 2.49233L16.6247 3.41459L15.9738 5.04778L16.2932 5.36721L17.2515 5.36721L18.2098 4.72835L19.1681 3.77005L19.4875 2.81176L19.1681 2.1729L17.2515 2.1729Z" fill="#4875FF"/>
</svg>
