<svg width="24" height="24" viewBox="0 0 24 24" fill="none" xmlns="http://www.w3.org/2000/svg">
<path d="M13.3711 15.0156V6.22656C12.9401 6.31898 12.0674 6.44308 11.2877 6.4993H4.4375C4.058 6.4993 3.75 6.8073 3.75 7.1868V7.87429H1.6875C1.308 7.87429 1 8.18229 1 8.56179V12.6868C1 13.0663 1.308 13.3743 1.6875 13.3743H3.75V14.0618C3.75 14.4413 4.058 14.7493 4.4375 14.7493H4.85412L7.61787 22.1165C7.78699 22.5579 8.16511 22.8783 8.62986 22.9718C8.72199 22.991 8.81411 23.0007 8.90486 23.0007C9.27199 23.0007 9.62124 22.8549 9.87149 22.5937L11.5229 20.956C11.945 20.5339 12.0454 19.8753 11.7759 19.3652L9.46861 14.7493H11.2946C12.1591 14.7999 12.8448 14.9032 13.3711 15.0156Z" fill="#4875FF"/>
<path opacity="0.48" d="M22.8872 1.33208C22.8735 1.3087 22.8611 1.28945 22.8432 1.26745C22.7676 1.1712 22.6727 1.09283 22.5559 1.04745C22.5517 1.04608 22.549 1.04058 22.5449 1.0392C22.5311 1.03508 22.5187 1.04195 22.505 1.03783C22.4431 1.01995 22.3812 0.999329 22.3125 0.999329C22.2657 0.999329 22.2245 1.0172 22.1791 1.02683C22.153 1.03233 22.1282 1.0337 22.1021 1.04195C21.9839 1.08045 21.8821 1.14645 21.801 1.2372C21.7955 1.2427 21.7872 1.24408 21.7817 1.24958C19.6381 3.85245 16.6489 5.5932 13.375 6.2312V15.0188C16.6489 15.6568 19.6381 17.3962 21.7817 19.9991C21.7872 20.0059 21.7969 20.0087 21.8037 20.0169C21.8519 20.0706 21.911 20.1132 21.9742 20.1489C21.9949 20.1613 22.0114 20.1792 22.032 20.1888C22.1186 20.2259 22.2121 20.2493 22.3125 20.2493C22.3909 20.2493 22.4679 20.2355 22.5449 20.2094C22.549 20.208 22.5517 20.2026 22.5559 20.2012C22.6727 20.1558 22.7676 20.0788 22.8432 19.9812C22.8597 19.9592 22.8721 19.9399 22.8872 19.9166C22.9532 19.8107 23 19.6938 23 19.5618V1.68683C23 1.55483 22.9532 1.43795 22.8872 1.33208Z" fill="#4875FF"/>
</svg>
