<svg width="24" height="24" viewBox="0 0 24 24" fill="none" xmlns="http://www.w3.org/2000/svg">
<path d="M12 24C18.6274 24 24 18.6274 24 12C24 5.37258 18.6274 0 12 0C5.37258 0 0 5.37258 0 12C0 18.6274 5.37258 24 12 24Z" fill="#4875FF"/>
<path d="M16.8275 14.5812C16.8275 12.3348 15.0389 11.36 12.7247 10.8938C10.9106 10.5547 10.1477 10.1902 10.1477 9.45271C10.1477 8.92714 10.4444 8.37615 11.877 8.37615C13.2842 8.37615 13.7419 9.02039 13.7419 9.66463H16.4291C16.4291 7.85059 15.4118 6.56211 13.3604 6.1637V4.62939H10.8937V6.09588C8.59647 6.3841 7.46058 7.67257 7.46058 9.43575C7.46058 11.8771 9.85104 12.64 11.7922 13.1062C13.2842 13.4453 14.1064 13.7759 14.1064 14.5727C14.1064 15.4458 13.5045 15.8866 12.0042 15.8866C10.6309 15.8866 9.85952 15.2424 9.85952 14.2845H7.17236C7.17236 15.9375 8.19806 17.6922 10.8937 18.0652V19.3706H13.3604V18.0397C15.4712 17.6922 16.8275 16.5054 16.8275 14.5812Z" fill="white"/>
</svg>
