<svg width="25" height="25" viewBox="0 0 25 25" fill="none" xmlns="http://www.w3.org/2000/svg">
<rect x="0.0186768" y="0.80249" width="24" height="24" rx="12" fill="#4875FF"/>
<path fill-rule="evenodd" clip-rule="evenodd" d="M8.69162 10.742C8.54189 10.51 8.60859 10.2006 8.84061 10.0509L12.8015 7.49477C13.0335 7.34504 13.343 7.41174 13.4927 7.64377L16.0488 11.6047C16.1985 11.8367 16.1318 12.1461 15.8998 12.2958C15.6678 12.4456 15.3583 12.3789 15.2086 12.1469L13.307 9.20025L12.1566 14.5372C12.0564 15.0021 12.0472 15.7412 12.3388 16.4088C12.6177 17.0476 13.1851 17.6573 14.3293 17.904C14.5992 17.9621 14.7709 18.2282 14.7127 18.4981C14.6545 18.768 14.3885 18.9397 14.1185 18.8815C12.6559 18.5662 11.8282 17.7386 11.4223 16.809C11.0289 15.9081 11.0451 14.9478 11.179 14.3265L12.3295 8.98953L9.38285 10.891C9.15083 11.0408 8.84135 10.9741 8.69162 10.742Z" fill="white"/>
</svg>
