<svg width="33" height="33" viewBox="0 0 33 33" fill="none" xmlns="http://www.w3.org/2000/svg">
<path fill-rule="evenodd" clip-rule="evenodd" d="M10.8333 10.9692C10.8333 7.83954 13.3704 5.30249 16.5 5.30249C19.6296 5.30249 22.1667 7.83954 22.1667 10.9692V13.9692H10.8333V10.9692ZM24.1667 10.9692V13.9692H25.8333C27.8584 13.9692 29.5 15.6108 29.5 17.6358V25.6358C29.5 27.6609 27.8584 29.3025 25.8333 29.3025H7.16667C5.14162 29.3025 3.5 27.6609 3.5 25.6358V17.6358C3.5 15.6108 5.14162 13.9692 7.16667 13.9692H8.83333V10.9692C8.83333 6.73497 12.2658 3.30249 16.5 3.30249C20.7342 3.30249 24.1667 6.73497 24.1667 10.9692ZM5.5 17.6358C5.5 16.7153 6.24619 15.9692 7.16667 15.9692H9.83333H23.1667H25.8333C26.7538 15.9692 27.5 16.7154 27.5 17.6358V25.6358C27.5 26.5563 26.7538 27.3025 25.8333 27.3025H7.16667C6.24619 27.3025 5.5 26.5563 5.5 25.6358V17.6358ZM15.5 22.0349C14.9022 21.6891 14.5 21.0428 14.5 20.3025C14.5 19.1979 15.3954 18.3025 16.5 18.3025C17.6046 18.3025 18.5 19.1979 18.5 20.3025C18.5 21.0428 18.0978 21.6891 17.5 22.0349V23.6358C17.5 24.1881 17.0523 24.6358 16.5 24.6358C15.9477 24.6358 15.5 24.1881 15.5 23.6358V22.0349Z" fill="#4875FF"/>
</svg>
