<svg xmlns="http://www.w3.org/2000/svg" xmlns:xlink="http://www.w3.org/1999/xlink"><defs>
<linearGradient id="paint0_linear_1_5449" x1="26.5" y1="1.73732" x2="2.44899" y2="35.6366" gradientUnits="userSpaceOnUse">
<stop stop-color="#4875FF"/>
<stop offset="1" stop-color="#4875FF" stop-opacity="0"/>
</linearGradient>

<clipPath id="clip0_1_5490">
<rect width="18" height="18" fill="white" transform="translate(0.0185547 0.89502)"/>
</clipPath>

<clipPath id="clip0_1_5400">
<rect width="30.7995" height="30" fill="white" transform="translate(0.758789)"/>
</clipPath>
</defs><symbol id="arrow-agile" viewBox="0 0 38 38">
<path d="M2.2647 35.5059L35.2402 2.7194M35.2402 2.7194L35.2402 35.5059M35.2402 2.7194L2.2647 2.7194" stroke="url(#paint0_linear_1_5449)" stroke-width="4" stroke-linecap="round" stroke-linejoin="round"/>

</symbol><symbol id="arrow-l" viewBox="0 0 20 20">
<path d="M11.6667 14.1667L8.33341 10.0001L11.6667 5.83342" stroke-width="1.5" stroke-linecap="round" stroke-linejoin="round"/>
</symbol><symbol id="arrow-r" viewBox="0 0 20 20">
<path d="M8.3335 5.83325L11.6668 9.99992L8.3335 14.1666" stroke-width="1.5" stroke-linecap="round" stroke-linejoin="round"/>
</symbol><symbol id="arrow-right" viewBox="0 0 24 24">
<path d="M19 12H5M19 12L12 19M19 12L12 5" stroke="white" stroke-width="2" stroke-linecap="round" stroke-linejoin="round"/>
</symbol><symbol id="arrow-up-right" viewBox="0 0 21 21">
<path d="M14.6666 6.79272V15.1261M14.6666 6.79272H6.33325M14.6666 6.79272L6.33325 15.1261" stroke-width="2" stroke-linecap="round" stroke-linejoin="round"/>
</symbol><symbol id="arrow-up" viewBox="0 0 24 25">
<path d="M8 10.5L12 6.5M12 6.5L16 10.5M12 6.5V18.5" stroke-width="1.5" stroke-linecap="round" stroke-linejoin="round"/>
</symbol><symbol id="capterra" viewBox="0 0 138 25">
<path d="M11.272 5.23753C11.7851 3.65814 14.0196 3.65814 14.5327 5.23753L15.2116 7.32698C15.4411 8.0333 16.0993 8.51152 16.842 8.51152H19.039C20.6997 8.51152 21.3901 10.6366 20.0466 11.6127L18.2692 12.904C17.6684 13.3406 17.417 14.1144 17.6465 14.8207L18.3254 16.9101C18.8386 18.4895 17.0309 19.8029 15.6874 18.8268L13.91 17.5354C13.3091 17.0989 12.4955 17.0989 11.8947 17.5354L10.1173 18.8268C8.77381 19.8029 6.96613 18.4895 7.4793 16.9101L8.15821 14.8207C8.38771 14.1144 8.13629 13.3406 7.53546 12.904L5.75806 11.6127C4.41455 10.6366 5.10503 8.51152 6.7657 8.51152H8.96267C9.70535 8.51152 10.3636 8.0333 10.5931 7.32698L11.272 5.23753Z" fill="#5E9DDC"/>
<path d="M38.1182 9.21211L47.1307 9.21391L52.6109 9.21485V3.78564L38.1182 9.21211Z" fill="#FF9D28"/>
<path d="M52.6108 3.78583V22.9536L59.4555 1.22217L52.6108 3.78583Z" fill="#68C5ED"/>
<path d="M52.6108 9.2148L47.1306 9.21387L52.6108 22.9534V9.2148Z" fill="#044D80"/>
<path d="M38.1182 9.21191L48.536 12.7391L47.1307 9.21371L38.1182 9.21191Z" fill="#E54747"/>
<path d="M71.3184 17.9079C71.2389 17.9874 71.1065 18.0865 70.9214 18.2056C70.7359 18.3248 70.4945 18.4439 70.1968 18.5631C69.899 18.682 69.5349 18.7844 69.105 18.8707C68.6747 18.9566 68.182 18.9997 67.6261 18.9997C66.5541 18.9997 65.6276 18.8275 64.8469 18.4837C64.0659 18.1398 63.4208 17.6597 62.9114 17.0445C62.4019 16.429 62.0281 15.7013 61.7899 14.8608C61.5517 14.0204 61.4326 13.0975 61.4326 12.0915C61.4326 11.086 61.5616 10.1561 61.8197 9.30254C62.0777 8.4489 62.4648 7.7114 62.9809 7.0891C63.4971 6.46727 64.1422 5.98085 64.9165 5.63003C65.6906 5.27961 66.6003 5.104 67.6459 5.104C68.1621 5.104 68.6286 5.15047 69.0455 5.24294C69.4623 5.33562 69.8262 5.44489 70.1373 5.57049C70.4481 5.69643 70.7062 5.82851 70.9115 5.96751C71.1165 6.10645 71.272 6.22253 71.378 6.31486C71.4971 6.421 71.5995 6.54661 71.6857 6.69202C71.7717 6.83782 71.8147 6.99663 71.8147 7.16851C71.8147 7.43338 71.7155 7.69793 71.517 7.96254C71.3185 8.22742 71.1001 8.47224 70.8618 8.69705C70.703 8.53824 70.5244 8.37636 70.3259 8.21076C70.1274 8.04535 69.9056 7.89994 69.6609 7.774C69.4159 7.6484 69.1379 7.54259 68.8271 7.45639C68.516 7.37045 68.1687 7.32731 67.785 7.32731C67.11 7.32731 66.5443 7.46319 66.0877 7.73427C65.6312 8.00568 65.2639 8.35956 64.986 8.79632C64.7081 9.23307 64.5096 9.7327 64.3904 10.2951C64.2714 10.8577 64.2118 11.43 64.2118 12.0122C64.2118 12.6344 64.2714 13.2299 64.3904 13.7987C64.5095 14.3678 64.7145 14.8708 65.0059 15.3074C65.2967 15.7441 65.6774 16.0949 66.1473 16.3594C66.6168 16.6244 67.2024 16.7565 67.9041 16.7565C68.2744 16.7565 68.6153 16.7103 68.9264 16.6176C69.2371 16.5251 69.512 16.4125 69.7502 16.28C69.9884 16.1479 70.1969 16.0091 70.3755 15.8633C70.5541 15.7177 70.703 15.5922 70.8221 15.486C70.9016 15.5789 70.994 15.6915 71.1 15.8236C71.2067 15.9571 71.306 16.0963 71.3978 16.2405C71.4902 16.3862 71.5697 16.5317 71.636 16.677C71.7021 16.8229 71.7352 16.9551 71.7352 17.074C71.7352 17.2463 71.7021 17.3917 71.636 17.5108C71.5696 17.63 71.4638 17.7624 71.3184 17.9079ZM81.5484 16.3854C81.5484 17.4373 81.7013 18.2028 82.0077 18.6821C81.7681 18.7751 81.545 18.8418 81.3387 18.8817C81.1321 18.9217 80.9159 18.9416 80.6896 18.9416C80.2104 18.9416 79.8475 18.8484 79.6013 18.6621C79.3548 18.4759 79.1984 18.2096 79.132 17.8632C78.8389 18.1698 78.4529 18.4293 77.9737 18.6423C77.4944 18.8549 76.9084 18.9618 76.2163 18.9618C75.8568 18.9618 75.4974 18.9119 75.1379 18.8127C74.7783 18.7127 74.4521 18.5504 74.1592 18.3251C73.8662 18.0992 73.6267 17.7973 73.4403 17.419C73.2537 17.0407 73.1607 16.5796 73.1607 16.0356C73.1607 15.3588 73.3237 14.8078 73.65 14.3833C73.9762 13.9584 74.3855 13.6234 74.8783 13.3778C75.3707 13.1325 75.9033 12.9636 76.476 12.8705C77.0483 12.7774 77.5743 12.7179 78.0536 12.691C78.2134 12.6779 78.3697 12.671 78.5229 12.671H78.9523V12.3076C78.9523 11.7958 78.8156 11.4322 78.5429 11.217C78.2698 11.0016 77.827 10.8937 77.2148 10.8937C76.6422 10.8937 76.1329 10.987 75.6871 11.1732C75.2408 11.3598 74.8049 11.5727 74.379 11.8123C74.1924 11.5861 74.0425 11.3365 73.9296 11.0634C73.8164 10.7908 73.7599 10.5876 73.7599 10.4543C73.7599 10.2681 73.8628 10.0883 74.0694 9.91511C74.2757 9.7423 74.5587 9.58562 74.9182 9.44582C75.2778 9.30601 75.6903 9.19307 76.1565 9.10633C76.6223 9.01986 77.115 8.97653 77.6343 8.97653C78.3532 8.97653 78.9623 9.04986 79.4615 9.19621C79.9608 9.34288 80.3668 9.56909 80.6798 9.87517C80.9925 10.1817 81.2155 10.5642 81.3487 11.0235C81.4817 11.4829 81.5485 12.0189 81.5485 12.6311L81.5484 16.3854ZM78.9921 14.0689H78.7126C78.6192 14.0689 78.5259 14.0758 78.433 14.089C78.1 14.1158 77.7704 14.1556 77.4445 14.2087C77.1181 14.2621 76.8284 14.3553 76.5758 14.4883C76.3227 14.6215 76.1164 14.7947 75.9567 15.0075C75.7969 15.2206 75.717 15.4937 75.717 15.8264C75.717 16.1992 75.8234 16.5152 76.0365 16.7749C76.2493 17.0346 76.6088 17.1644 77.1149 17.1644C77.3677 17.1644 77.6074 17.1313 77.8339 17.0644C78.0601 16.9981 78.2598 16.9115 78.433 16.805C78.6059 16.6984 78.7425 16.582 78.8424 16.4554C78.9422 16.329 78.9922 16.2126 78.9922 16.106L78.9921 14.0689ZM86.5208 10.1347C86.733 9.88197 87.065 9.62549 87.5162 9.36581C87.9674 9.1062 88.5381 8.97639 89.2283 8.97639C89.7196 8.97639 90.1873 9.05966 90.6321 9.22601C91.0764 9.39261 91.4714 9.66229 91.8165 10.0348C92.1616 10.4077 92.437 10.9004 92.6428 11.5127C92.8485 12.1252 92.9514 12.8776 92.9514 13.7693C92.9514 14.8077 92.8318 15.6634 92.593 16.3356C92.3539 17.0081 92.0456 17.5407 91.6675 17.9333C91.2892 18.3261 90.8676 18.6023 90.4033 18.762C89.9387 18.9218 89.4741 19.0018 89.0097 19.0018C88.6248 19.0018 88.2895 18.9584 88.0044 18.8719C87.7189 18.7852 87.4767 18.689 87.2776 18.5823C87.0786 18.4759 86.926 18.3696 86.8199 18.2628C86.7138 18.1564 86.6473 18.083 86.6209 18.043V22.9522H83.9048V9.25594C83.9716 9.24287 84.0521 9.22947 84.1463 9.21607C84.2269 9.20301 84.3208 9.19294 84.4281 9.18607C84.5354 9.17954 84.6628 9.17614 84.8103 9.17614C85.2528 9.17614 85.6285 9.24947 85.937 9.39582C86.2455 9.54249 86.4403 9.78863 86.5208 10.1347ZM90.1156 13.8292C90.1156 13.4298 90.0824 13.0573 90.0163 12.7109C89.9502 12.3649 89.841 12.0653 89.6887 11.8123C89.5364 11.5595 89.331 11.3629 89.073 11.223C88.8146 11.0833 88.5004 11.0135 88.1299 11.0135C87.574 11.0135 87.1868 11.1202 86.9682 11.3329C86.7499 11.5461 86.6407 11.7792 86.6407 12.0319V16.2658C86.7464 16.3724 86.9348 16.4987 87.2063 16.6452C87.4778 16.7918 87.792 16.8647 88.1496 16.8647C88.8248 16.8647 89.3213 16.5987 89.639 16.066C89.9568 15.5336 90.1156 14.7878 90.1156 13.8292ZM95.0477 17.2643C94.9543 16.9981 94.8945 16.7184 94.8679 16.4254C94.8411 16.1327 94.828 15.8399 94.828 15.5466V6.28033C94.921 6.26726 95.0209 6.25386 95.1276 6.24039C95.2204 6.22733 95.3204 6.21739 95.427 6.21046C95.5335 6.20392 95.6399 6.20052 95.7465 6.20052C95.9594 6.20052 96.1726 6.22053 96.3857 6.26039C96.5984 6.3004 96.7916 6.38027 96.9649 6.50001C97.1378 6.61981 97.2775 6.78309 97.3842 6.9893C97.4907 7.19584 97.5439 7.46552 97.5439 7.79807V9.21594H100.34V11.2331H97.5439V15.4918C97.5439 16.4205 97.9234 16.8847 98.6823 16.8847C98.8687 16.8847 99.0449 16.8549 99.2116 16.7948C99.3779 16.735 99.5276 16.6685 99.6609 16.5952C99.7939 16.522 99.9105 16.4455 100.01 16.3656C100.11 16.2856 100.18 16.2258 100.22 16.1859C100.42 16.479 100.573 16.7326 100.679 16.9467C100.786 17.1611 100.839 17.3622 100.839 17.5501C100.839 17.725 100.769 17.8965 100.629 18.0644C100.489 18.2323 100.293 18.3871 100.04 18.5281C99.7873 18.6691 99.4812 18.7833 99.1216 18.8707C98.7622 18.9581 98.3693 19.0018 97.9434 19.0018C97.1177 19.0018 96.4754 18.8419 96.0161 18.5225C95.5568 18.2028 95.2338 17.7834 95.0477 17.2643ZM107.219 17.0046C107.553 17.0046 107.847 16.9681 108.101 16.8947C108.354 16.8218 108.581 16.7318 108.782 16.6253C108.982 16.5189 109.156 16.4024 109.303 16.2758C109.45 16.1494 109.583 16.0329 109.704 15.9262C109.864 16.1258 110.031 16.3824 110.205 16.695C110.378 17.0081 110.465 17.2643 110.465 17.4639C110.465 17.7569 110.299 18.0232 109.966 18.2628C109.687 18.4759 109.29 18.659 108.778 18.8119C108.265 18.9649 107.663 19.0416 106.971 19.0416C106.344 19.0416 105.729 18.9618 105.123 18.8019C104.517 18.6423 103.978 18.3626 103.506 17.9631C103.033 17.5639 102.65 17.0281 102.357 16.3556C102.064 15.6833 101.918 14.8347 101.918 13.8093C101.918 12.9705 102.048 12.2485 102.307 11.6425C102.567 11.0368 102.913 10.5342 103.346 10.1348C103.778 9.73537 104.268 9.44268 104.814 9.25601C105.359 9.0698 105.919 8.97646 106.491 8.97646C107.237 8.97646 107.869 9.0932 108.388 9.32594C108.908 9.55902 109.33 9.87197 109.657 10.2646C109.983 10.6573 110.219 11.1067 110.365 11.6126C110.512 12.1187 110.585 12.651 110.585 13.2102V13.4897C110.585 13.5966 110.582 13.7094 110.575 13.8292C110.568 13.9492 110.562 14.0658 110.555 14.1787C110.548 14.2921 110.538 14.3819 110.525 14.4484H104.634C104.687 15.1807 104.914 15.7897 105.315 16.2758C105.716 16.7619 106.35 17.0046 107.219 17.0046ZM108.129 12.9505C108.129 12.3115 108.005 11.7923 107.757 11.3928C107.509 10.9935 107.064 10.7937 106.422 10.7937C105.872 10.7937 105.434 10.9835 105.106 11.3629C104.778 11.7424 104.614 12.2716 104.614 12.9505L108.129 12.9505ZM115.312 10.1852C115.391 10.0664 115.498 9.93437 115.631 9.7889C115.764 9.64356 115.927 9.51149 116.12 9.39268C116.313 9.27381 116.526 9.17454 116.759 9.09533C116.992 9.01606 117.242 8.97646 117.508 8.97646C117.668 8.97646 117.838 8.98986 118.018 9.01606C118.197 9.0426 118.364 9.0922 118.517 9.1646C118.67 9.23734 118.793 9.33621 118.886 9.46168C118.979 9.58716 119.026 9.74223 119.026 9.92697C119.026 10.2175 118.953 10.5511 118.806 10.9277C118.66 11.3046 118.514 11.6261 118.367 11.8922C118.141 11.7059 117.914 11.5627 117.688 11.4629C117.462 11.363 117.195 11.313 116.889 11.313C116.476 11.313 116.13 11.4332 115.851 11.6735C115.571 11.9137 115.431 12.2008 115.431 12.5346V18.9996H112.715V9.25594C112.782 9.24287 112.862 9.22947 112.955 9.21607C113.035 9.20301 113.128 9.19294 113.235 9.18607C113.341 9.17954 113.467 9.17614 113.614 9.17614C114.04 9.17614 114.409 9.25874 114.722 9.42362C115.035 9.58829 115.232 9.8423 115.312 10.1852ZM123.034 10.1852C123.113 10.0664 123.22 9.93437 123.353 9.7889C123.486 9.64356 123.649 9.51149 123.842 9.39268C124.035 9.27381 124.248 9.17454 124.481 9.09533C124.714 9.01606 124.964 8.97646 125.23 8.97646C125.39 8.97646 125.56 8.98986 125.739 9.01606C125.919 9.0426 126.086 9.0922 126.239 9.1646C126.392 9.23734 126.515 9.33621 126.608 9.46168C126.701 9.58716 126.748 9.74223 126.748 9.92697C126.748 10.2175 126.675 10.5511 126.528 10.9277C126.382 11.3046 126.235 11.6261 126.089 11.8922C125.863 11.7059 125.636 11.5627 125.41 11.4629C125.184 11.363 124.917 11.313 124.611 11.313C124.198 11.313 123.852 11.4332 123.573 11.6735C123.293 11.9137 123.153 12.2008 123.153 12.5346V18.9996H120.437V9.25594C120.504 9.24287 120.584 9.22947 120.677 9.21607C120.757 9.20301 120.85 9.19294 120.957 9.18607C121.063 9.17954 121.189 9.17614 121.336 9.17614C121.762 9.17614 122.131 9.25874 122.444 9.42362C122.757 9.58829 122.954 9.8423 123.034 10.1852ZM135.995 16.3854C135.995 17.4373 136.148 18.2028 136.454 18.6821C136.214 18.7751 135.991 18.8418 135.785 18.8817C135.578 18.9217 135.362 18.9416 135.136 18.9416C134.657 18.9416 134.294 18.8484 134.048 18.6621C133.801 18.4759 133.645 18.2096 133.578 17.8632C133.285 18.1698 132.899 18.4293 132.42 18.6423C131.941 18.8549 131.355 18.9618 130.663 18.9618C130.303 18.9618 129.944 18.9119 129.584 18.8127C129.225 18.7127 128.898 18.5504 128.605 18.3251C128.312 18.0992 128.073 17.7973 127.887 17.419C127.7 17.0407 127.607 16.5796 127.607 16.0356C127.607 15.3588 127.77 14.8078 128.096 14.3833C128.422 13.9584 128.832 13.6234 129.325 13.3778C129.817 13.1325 130.349 12.9636 130.922 12.8705C131.494 12.7774 132.021 12.7179 132.5 12.691C132.66 12.6779 132.816 12.671 132.969 12.671H133.399V12.3076C133.399 11.7958 133.262 11.4322 132.989 11.217C132.716 11.0016 132.273 10.8937 131.661 10.8937C131.088 10.8937 130.579 10.987 130.133 11.1732C129.687 11.3598 129.251 11.5727 128.825 11.8123C128.639 11.5861 128.489 11.3365 128.376 11.0634C128.263 10.7908 128.206 10.5876 128.206 10.4543C128.206 10.2681 128.309 10.0883 128.516 9.91511C128.722 9.7423 129.005 9.58562 129.364 9.44582C129.724 9.30601 130.136 9.19307 130.603 9.10633C131.068 9.01986 131.561 8.97653 132.08 8.97653C132.799 8.97653 133.408 9.04986 133.908 9.19621C134.407 9.34288 134.813 9.56909 135.126 9.87517C135.439 10.1817 135.662 10.5642 135.795 11.0235C135.928 11.4829 135.995 12.0189 135.995 12.6311V16.3854ZM133.438 14.0689H133.159C133.065 14.0689 132.972 14.0758 132.879 14.089C132.546 14.1158 132.217 14.1556 131.891 14.2087C131.564 14.2621 131.275 14.3553 131.022 14.4883C130.769 14.6215 130.563 14.7947 130.403 15.0075C130.243 15.2206 130.163 15.4937 130.163 15.8264C130.163 16.1992 130.27 16.5152 130.483 16.7749C130.696 17.0346 131.055 17.1644 131.561 17.1644C131.814 17.1644 132.054 17.1313 132.28 17.0644C132.506 16.9981 132.706 16.9115 132.879 16.805C133.052 16.6984 133.189 16.582 133.289 16.4554C133.388 16.329 133.438 16.2126 133.438 16.106L133.438 14.0689Z" fill="#044D80"/>
</symbol><symbol id="coins-stacked" viewBox="0 0 33 33">
<path d="M12.5001 26.9692C12.2256 26.9692 11.954 26.9642 11.6855 26.9542M5.54331 20.3026C4.0654 19.5949 3.16675 18.6604 3.16675 17.6359C3.16675 16.6114 4.0654 15.6769 5.54331 14.9692M5.54331 20.3026C4.0654 21.0102 3.16675 21.9448 3.16675 22.9692C3.16675 25.0608 6.9123 26.7774 11.6855 26.9542M5.54331 20.3026C7.08262 21.0397 9.25033 21.5307 11.6855 21.6209M5.54331 14.9692C7.2523 15.7876 9.73586 16.3026 12.5001 16.3026C15.2643 16.3026 17.7479 15.7876 19.4569 14.9692M5.54331 14.9692C4.0654 14.2616 3.16675 13.327 3.16675 12.3026C3.16675 11.2781 4.0654 10.3436 5.54331 9.63591M19.4569 14.9692C20.9348 14.2616 21.8334 13.327 21.8334 12.3026C21.8334 11.2781 20.9348 10.3436 19.4569 9.63591M19.4569 14.9692C20.2684 15.3578 20.9053 15.8149 21.3146 16.3176M19.4569 9.63591C20.9348 8.92823 21.8334 7.99371 21.8334 6.96924C21.8334 4.7601 17.6547 2.96924 12.5001 2.96924C7.34542 2.96924 3.16675 4.7601 3.16675 6.96924C3.16675 7.99371 4.0654 8.92823 5.54331 9.63591M19.4569 9.63591C17.7479 10.4542 15.2643 10.9692 12.5001 10.9692C9.73586 10.9692 7.2523 10.4542 5.54331 9.63591M27.4569 22.9692C28.9348 22.2616 29.8334 21.327 29.8334 20.3026C29.8334 18.2111 26.0879 16.4945 21.3146 16.3176M27.4569 22.9692C25.7479 23.7876 23.2643 24.3026 20.5001 24.3026C17.7359 24.3026 15.2523 23.7876 13.5433 22.9692M27.4569 22.9692C28.9348 23.6769 29.8334 24.6114 29.8334 25.6359C29.8334 26.6604 28.9348 27.5949 27.4569 28.3026C25.7479 29.1209 23.2643 29.6359 20.5001 29.6359C17.7359 29.6359 15.2523 29.1209 13.5433 28.3026C12.7317 27.914 12.0949 27.457 11.6855 26.9542M13.5433 22.9692C12.0654 23.6769 11.1667 24.6114 11.1667 25.6359C11.1667 26.0978 11.3494 26.5414 11.6855 26.9542M13.5433 22.9692C12.7317 22.5806 12.0949 22.1236 11.6855 21.6209M21.3146 16.3176C21.0462 16.3076 20.7745 16.3026 20.5001 16.3026C15.3454 16.3026 11.1667 18.0934 11.1667 20.3026C11.1667 20.7645 11.3494 21.2081 11.6855 21.6209" stroke="#4875FF" stroke-width="2"/>
</symbol><symbol id="discord" viewBox="0 0 14 17">
<path d="M5.552 6.91805C5.096 6.91805 4.736 7.31805 4.736 7.80605C4.736 8.29405 5.104 8.69405 5.552 8.69405C6.008 8.69405 6.368 8.29405 6.368 7.80605C6.376 7.31805 6.008 6.91805 5.552 6.91805ZM8.472 6.91805C8.016 6.91805 7.656 7.31805 7.656 7.80605C7.656 8.29405 8.024 8.69405 8.472 8.69405C8.928 8.69405 9.288 8.29405 9.288 7.80605C9.288 7.31805 8.928 6.91805 8.472 6.91805Z" fill="white"/>
<path d="M12.36 0.206055H1.64C0.736 0.206055 0 0.942055 0 1.85405V12.6701C0 13.5821 0.736 14.3181 1.64 14.3181H10.712L10.288 12.8381L11.312 13.7901L12.28 14.6861L14 16.2061V1.85405C14 0.942055 13.264 0.206055 12.36 0.206055ZM9.272 10.6541C9.272 10.6541 8.984 10.3101 8.744 10.0061C9.792 9.71005 10.192 9.05406 10.192 9.05406C9.864 9.27005 9.552 9.42205 9.272 9.52605C8.872 9.69405 8.488 9.80606 8.112 9.87005C7.344 10.0141 6.64 9.97405 6.04 9.86205C5.584 9.77405 5.192 9.64605 4.864 9.51805C4.68 9.44605 4.48 9.35805 4.28 9.24605C4.256 9.23005 4.232 9.22205 4.208 9.20605C4.192 9.19805 4.184 9.19005 4.176 9.18205C4.032 9.10205 3.952 9.04605 3.952 9.04605C3.952 9.04605 4.336 9.68606 5.352 9.99006C5.112 10.2941 4.816 10.6541 4.816 10.6541C3.048 10.5981 2.376 9.43805 2.376 9.43805C2.376 6.86205 3.528 4.77405 3.528 4.77405C4.68 3.91005 5.776 3.93405 5.776 3.93405L5.856 4.03005C4.416 4.44605 3.752 5.07805 3.752 5.07805C3.752 5.07805 3.928 4.98205 4.224 4.84605C5.08 4.47005 5.76 4.36605 6.04 4.34205C6.088 4.33405 6.128 4.32605 6.176 4.32605C6.664 4.26205 7.216 4.24605 7.792 4.31005C8.552 4.39806 9.368 4.62205 10.2 5.07805C10.2 5.07805 9.568 4.47805 8.208 4.06205L8.32 3.93405C8.32 3.93405 9.416 3.91005 10.568 4.77405C10.568 4.77405 11.72 6.86205 11.72 9.43805C11.72 9.43805 11.04 10.5981 9.272 10.6541Z" fill="white"/>
</symbol><symbol id="dollar" viewBox="0 0 19 19">
<g clip-path="url(#clip0_1_5490)">
<path fill-rule="evenodd" clip-rule="evenodd" d="M9.01782 2.95703C5.18635 2.95703 2.08032 6.06306 2.08032 9.89453C2.08032 13.726 5.18635 16.832 9.01782 16.832C12.8493 16.832 15.9553 13.726 15.9553 9.89453C15.9553 6.06306 12.8493 2.95703 9.01782 2.95703ZM0.955322 9.89453C0.955322 5.44174 4.56503 1.83203 9.01782 1.83203C13.4706 1.83203 17.0803 5.44174 17.0803 9.89453C17.0803 14.3474 13.4706 17.957 9.01782 17.957C4.56503 17.957 0.955322 14.3474 0.955322 9.89453ZM9.01782 4.83203C9.32847 4.83203 9.58032 5.08387 9.58032 5.39453V5.63208C10.8031 5.85103 11.8303 6.76974 11.8303 8.01953C11.8303 8.33019 11.5785 8.58203 11.2678 8.58203C10.9572 8.58203 10.7053 8.33019 10.7053 8.01953C10.7053 7.38633 10.0502 6.70703 9.01782 6.70703C7.98545 6.70703 7.33032 7.38633 7.33032 8.01953C7.33032 8.65276 7.98545 9.33203 9.01782 9.33203C10.4707 9.33203 11.8303 10.3316 11.8303 11.7695C11.8303 13.0193 10.8031 13.938 9.58032 14.157V14.3945C9.58032 14.7052 9.32847 14.957 9.01782 14.957C8.70717 14.957 8.45532 14.7052 8.45532 14.3945V14.157C7.2325 13.938 6.20532 13.0193 6.20532 11.7695C6.20532 11.4589 6.45716 11.207 6.76782 11.207C7.07848 11.207 7.33032 11.4589 7.33032 11.7695C7.33032 12.4028 7.98545 13.082 9.01782 13.082C10.0502 13.082 10.7053 12.4028 10.7053 11.7695C10.7053 11.1363 10.0502 10.457 9.01782 10.457C7.56492 10.457 6.20532 9.45743 6.20532 8.01953C6.20532 6.76974 7.2325 5.85103 8.45532 5.63208V5.39453C8.45532 5.08387 8.70717 4.83203 9.01782 4.83203Z" fill="#6A737E"/>
</g>

</symbol><symbol id="dollars" viewBox="0 0 24 24">
<path d="M12 24C18.6274 24 24 18.6274 24 12C24 5.37258 18.6274 0 12 0C5.37258 0 0 5.37258 0 12C0 18.6274 5.37258 24 12 24Z" fill="#4875FF"/>
<path d="M16.8275 14.5812C16.8275 12.3348 15.0389 11.36 12.7247 10.8938C10.9106 10.5547 10.1477 10.1902 10.1477 9.45271C10.1477 8.92714 10.4444 8.37615 11.877 8.37615C13.2842 8.37615 13.7419 9.02039 13.7419 9.66463H16.4291C16.4291 7.85059 15.4118 6.56211 13.3604 6.1637V4.62939H10.8937V6.09588C8.59647 6.3841 7.46058 7.67257 7.46058 9.43575C7.46058 11.8771 9.85104 12.64 11.7922 13.1062C13.2842 13.4453 14.1064 13.7759 14.1064 14.5727C14.1064 15.4458 13.5045 15.8866 12.0042 15.8866C10.6309 15.8866 9.85952 15.2424 9.85952 14.2845H7.17236C7.17236 15.9375 8.19806 17.6922 10.8937 18.0652V19.3706H13.3604V18.0397C15.4712 17.6922 16.8275 16.5054 16.8275 14.5812Z" fill="white"/>
</symbol><symbol id="icon-up" viewBox="0 0 25 25">
<rect x="0.0186768" y="0.80249" width="24" height="24" rx="12" fill="#4875FF"/>
<path fill-rule="evenodd" clip-rule="evenodd" d="M8.69162 10.742C8.54189 10.51 8.60859 10.2006 8.84061 10.0509L12.8015 7.49477C13.0335 7.34504 13.343 7.41174 13.4927 7.64377L16.0488 11.6047C16.1985 11.8367 16.1318 12.1461 15.8998 12.2958C15.6678 12.4456 15.3583 12.3789 15.2086 12.1469L13.307 9.20025L12.1566 14.5372C12.0564 15.0021 12.0472 15.7412 12.3388 16.4088C12.6177 17.0476 13.1851 17.6573 14.3293 17.904C14.5992 17.9621 14.7709 18.2282 14.7127 18.4981C14.6545 18.768 14.3885 18.9397 14.1185 18.8815C12.6559 18.5662 11.8282 17.7386 11.4223 16.809C11.0289 15.9081 11.0451 14.9478 11.179 14.3265L12.3295 8.98953L9.38285 10.891C9.15083 11.0408 8.84135 10.9741 8.69162 10.742Z" fill="white"/>
</symbol><symbol id="instagram" viewBox="0 0 18 18">
<path d="M9.00056 2.40625C11.2006 2.40625 11.5006 2.40625 12.4006 2.40625C13.2006 2.40625 13.6006 2.60625 13.9006 2.70625C14.3006 2.90625 14.6006 3.00625 14.9006 3.30625C15.2006 3.60625 15.4006 3.90625 15.5006 4.30625C15.6006 4.60625 15.7006 5.00625 15.8006 5.80625C15.8006 6.70625 15.8006 6.90625 15.8006 9.20625C15.8006 11.5063 15.8006 11.7063 15.8006 12.6062C15.8006 13.4062 15.6006 13.8062 15.5006 14.1062C15.3006 14.5062 15.2006 14.8062 14.9006 15.1062C14.6006 15.4062 14.3006 15.6062 13.9006 15.7063C13.6006 15.8063 13.2006 15.9062 12.4006 16.0062C11.5006 16.0062 11.3006 16.0062 9.00056 16.0062C6.70056 16.0062 6.50056 16.0062 5.60056 16.0062C4.80056 16.0062 4.40056 15.8063 4.10056 15.7063C3.70056 15.5063 3.40056 15.4062 3.10056 15.1062C2.80056 14.8062 2.60056 14.5062 2.50056 14.1062C2.40056 13.8062 2.30056 13.4062 2.20056 12.6062C2.20056 11.7063 2.20056 11.5063 2.20056 9.20625C2.20056 6.90625 2.20056 6.70625 2.20056 5.80625C2.20056 5.00625 2.40056 4.60625 2.50056 4.30625C2.70056 3.90625 2.80056 3.60625 3.10056 3.30625C3.40056 3.00625 3.70056 2.80625 4.10056 2.70625C4.40056 2.60625 4.80056 2.50625 5.60056 2.40625C6.50056 2.40625 6.80056 2.40625 9.00056 2.40625ZM9.00056 0.90625C6.70056 0.90625 6.50056 0.90625 5.60056 0.90625C4.70056 0.90625 4.10056 1.10625 3.60056 1.30625C3.10056 1.50625 2.60056 1.80625 2.10056 2.30625C1.60056 2.80625 1.40056 3.20625 1.10056 3.80625C0.900562 4.30625 0.800562 4.90625 0.700562 5.80625C0.700562 6.70625 0.700562 7.00625 0.700562 9.20625C0.700562 11.5063 0.700562 11.7063 0.700562 12.6062C0.700562 13.5062 0.900562 14.1062 1.10056 14.6062C1.30056 15.1062 1.60056 15.6062 2.10056 16.1062C2.60056 16.6062 3.00056 16.8063 3.60056 17.1063C4.10056 17.3063 4.70056 17.4062 5.60056 17.5062C6.50056 17.5062 6.80056 17.5062 9.00056 17.5062C11.2006 17.5062 11.5006 17.5062 12.4006 17.5062C13.3006 17.5062 13.9006 17.3063 14.4006 17.1063C14.9006 16.9062 15.4006 16.6062 15.9006 16.1062C16.4006 15.6062 16.6006 15.2063 16.9006 14.6062C17.1006 14.1062 17.2006 13.5062 17.3006 12.6062C17.3006 11.7063 17.3006 11.4062 17.3006 9.20625C17.3006 7.00625 17.3006 6.70625 17.3006 5.80625C17.3006 4.90625 17.1006 4.30625 16.9006 3.80625C16.7006 3.30625 16.4006 2.80625 15.9006 2.30625C15.4006 1.80625 15.0006 1.60625 14.4006 1.30625C13.9006 1.10625 13.3006 1.00625 12.4006 0.90625C11.5006 0.90625 11.3006 0.90625 9.00056 0.90625Z" fill="white"/>
<path d="M9.00056 4.90625C6.60056 4.90625 4.70056 6.80625 4.70056 9.20625C4.70056 11.6063 6.60056 13.5062 9.00056 13.5062C11.4006 13.5062 13.3006 11.6063 13.3006 9.20625C13.3006 6.80625 11.4006 4.90625 9.00056 4.90625ZM9.00056 12.0062C7.50056 12.0062 6.20056 10.8062 6.20056 9.20625C6.20056 7.70625 7.40056 6.40625 9.00056 6.40625C10.5006 6.40625 11.8006 7.60625 11.8006 9.20625C11.8006 10.7063 10.5006 12.0062 9.00056 12.0062Z" fill="white"/>
<path d="M13.4006 5.80625C13.9528 5.80625 14.4006 5.35854 14.4006 4.80625C14.4006 4.25397 13.9528 3.80625 13.4006 3.80625C12.8483 3.80625 12.4006 4.25397 12.4006 4.80625C12.4006 5.35854 12.8483 5.80625 13.4006 5.80625Z" fill="white"/>
</symbol><symbol id="linkedin" viewBox="0 0 16 17">
<path d="M3.60001 16.2061H0.199997V5.50605H3.60001V16.2061ZM1.9 4.00605C0.800002 4.00605 0 3.20605 0 2.10605C0 1.00605 0.900002 0.206055 1.9 0.206055C3 0.206055 3.8 1.00605 3.8 2.10605C3.8 3.20605 3 4.00605 1.9 4.00605ZM16 16.2061H12.6V10.4061C12.6 8.70606 11.9 8.20605 10.9 8.20605C9.89999 8.20605 8.89999 9.00605 8.89999 10.5061V16.2061H5.5V5.50605H8.7V7.00605C9 6.30606 10.2 5.20605 11.9 5.20605C13.8 5.20605 15.8 6.30605 15.8 9.60605V16.2061H16Z" fill="white"/>
</symbol><symbol id="locked" viewBox="0 0 33 33">
<path fill-rule="evenodd" clip-rule="evenodd" d="M10.8333 10.9692C10.8333 7.83954 13.3704 5.30249 16.5 5.30249C19.6296 5.30249 22.1667 7.83954 22.1667 10.9692V13.9692H10.8333V10.9692ZM24.1667 10.9692V13.9692H25.8333C27.8584 13.9692 29.5 15.6108 29.5 17.6358V25.6358C29.5 27.6609 27.8584 29.3025 25.8333 29.3025H7.16667C5.14162 29.3025 3.5 27.6609 3.5 25.6358V17.6358C3.5 15.6108 5.14162 13.9692 7.16667 13.9692H8.83333V10.9692C8.83333 6.73497 12.2658 3.30249 16.5 3.30249C20.7342 3.30249 24.1667 6.73497 24.1667 10.9692ZM5.5 17.6358C5.5 16.7153 6.24619 15.9692 7.16667 15.9692H9.83333H23.1667H25.8333C26.7538 15.9692 27.5 16.7154 27.5 17.6358V25.6358C27.5 26.5563 26.7538 27.3025 25.8333 27.3025H7.16667C6.24619 27.3025 5.5 26.5563 5.5 25.6358V17.6358ZM15.5 22.0349C14.9022 21.6891 14.5 21.0428 14.5 20.3025C14.5 19.1979 15.3954 18.3025 16.5 18.3025C17.6046 18.3025 18.5 19.1979 18.5 20.3025C18.5 21.0428 18.0978 21.6891 17.5 22.0349V23.6358C17.5 24.1881 17.0523 24.6358 16.5 24.6358C15.9477 24.6358 15.5 24.1881 15.5 23.6358V22.0349Z" fill="#4875FF"/>
</symbol><symbol id="logo" viewBox="0 0 187 31">
<path d="M50.2957 23.2132H41.8393V6.81066H49.834C51.3082 6.81066 52.5394 7.24806 53.5276 8.12286C54.5158 8.96526 55.0099 10.0345 55.0099 11.3305C55.0099 12.6751 54.4996 13.7686 53.479 14.611C54.9532 15.5344 55.6903 16.8304 55.6903 18.499C55.6903 19.8598 55.1719 20.9857 54.1351 21.8767C53.0983 22.7677 51.8185 23.2132 50.2957 23.2132ZM50.2714 16.3363H45.3142V20.0299H50.2714C50.7736 20.0299 51.1948 19.8517 51.535 19.4953C51.8914 19.1389 52.0696 18.7015 52.0696 18.1831C52.0696 17.6647 51.8914 17.2273 51.535 16.8709C51.1948 16.5145 50.7736 16.3363 50.2714 16.3363ZM49.7854 10.0183H45.3142V13.2988H49.7854C50.2066 13.2988 50.563 13.1692 50.8546 12.91C51.1624 12.6508 51.3406 12.3106 51.3892 11.8894C51.4054 11.857 51.4135 11.776 51.4135 11.6464C51.4135 11.1766 51.2596 10.7878 50.9518 10.48C50.644 10.1722 50.2552 10.0183 49.7854 10.0183ZM57.715 6.81066H61.1899V20.0299H69.2575V23.2132H57.715V6.81066ZM73.6041 23.2132H69.9834L76.9332 6.81066H79.7763L86.7261 23.2132H83.1054L81.9147 20.3215H74.7948L73.6041 23.2132ZM80.6268 17.1868L78.3669 11.7436L76.107 17.1868H80.6268ZM95.4965 6.51906C97.1975 6.51906 98.7365 6.94026 100.114 7.78266C101.491 8.60886 102.527 9.73476 103.224 11.1604L99.8705 12.3997C99.4331 11.6059 98.8337 10.9822 98.0723 10.5286C97.3109 10.075 96.4523 9.84816 95.4965 9.84816C94.0547 9.84816 92.864 10.3423 91.9244 11.3305C90.9848 12.3187 90.515 13.5418 90.515 14.9998C90.515 16.474 90.9848 17.7052 91.9244 18.6934C92.864 19.6816 94.0547 20.1757 95.4965 20.1757C96.4523 20.1757 97.3109 19.9489 98.0723 19.4953C98.8337 19.0417 99.4331 18.418 99.8705 17.6242L103.224 18.8635C102.527 20.2891 101.491 21.4231 100.114 22.2655C98.7365 23.0917 97.1975 23.5048 95.4965 23.5048C93.0341 23.5048 90.9848 22.6948 89.3486 21.0748C87.7124 19.4386 86.8943 17.4217 86.8943 15.0241C86.8943 12.6265 87.7124 10.6096 89.3486 8.97336C91.0172 7.33716 93.0665 6.51906 95.4965 6.51906ZM105.128 23.2132V6.81066H108.603V13.7362L114.338 6.81066H118.736L112.103 14.8297L119.198 23.2132H114.8L108.603 15.8989V23.2132H105.128ZM124.076 17.6971V23.2132H120.601V6.81066H128.012C129.681 6.81066 131.066 7.32906 132.167 8.36586C133.285 9.40266 133.844 10.6987 133.844 12.2539C133.844 13.7929 133.285 15.0889 132.167 16.1419C131.066 17.1787 129.681 17.6971 128.012 17.6971H124.076ZM128.012 10.0183H124.076V14.5138H128.012C128.644 14.5138 129.17 14.3032 129.592 13.882C130.029 13.4446 130.248 12.9019 130.248 12.2539C130.248 11.6059 130.029 11.0713 129.592 10.6501C129.17 10.2289 128.644 10.0183 128.012 10.0183ZM146.127 16.5793V6.81066H149.602V16.5793C149.602 18.5233 148.905 20.1676 147.512 21.5122C146.135 22.8406 144.418 23.5048 142.361 23.5048C140.303 23.5048 138.586 22.8406 137.209 21.5122C135.832 20.1838 135.143 18.5395 135.143 16.5793V6.81066H138.618V16.5793C138.618 17.6485 138.975 18.5395 139.688 19.2523C140.4 19.9651 141.291 20.3215 142.361 20.3215C143.446 20.3215 144.345 19.9651 145.058 19.2523C145.771 18.5395 146.127 17.6485 146.127 16.5793ZM155.28 23.2132H151.854V6.81066H155.28L160.942 16.8223L166.628 6.81066H170.054V23.2132H166.628V13.2502L162.084 21.415H159.8L155.28 13.2988V23.2132ZM175.95 17.6971V23.2132H172.475V6.81066H179.887C181.556 6.81066 182.941 7.32906 184.042 8.36586C185.16 9.40266 185.719 10.6987 185.719 12.2539C185.719 13.7929 185.16 15.0889 184.042 16.1419C182.941 17.1787 181.556 17.6971 179.887 17.6971H175.95ZM179.887 10.0183H175.95V14.5138H179.887C180.519 14.5138 181.045 14.3032 181.466 13.882C181.904 13.4446 182.123 12.9019 182.123 12.2539C182.123 11.6059 181.904 11.0713 181.466 10.6501C181.045 10.2289 180.519 10.0183 179.887 10.0183Z" fill="black"/>
<g clip-path="url(#clip0_1_5400)">
<path fill-rule="evenodd" clip-rule="evenodd" d="M4.54893 26.2102L0.758789 30H10.2908L14.0806 26.2102L17.9776 22.3131L16.0211 20.3566L20.2333 19.5256L24.4456 18.6949L23.615 22.9072L22.7843 27.1195L20.8277 25.1633L15.9913 29.9997H22.7567C27.5973 29.9997 31.558 26.0393 31.558 21.1987C31.558 18.3203 30.1574 15.7532 28.0041 14.1447C29.9589 13.024 31.2833 10.9158 31.2833 8.51227V7.49991C31.284 3.375 27.909 0 23.7841 0H8.98591V16.0726L15.6761 9.38275L13.7196 7.42618L17.9318 6.59518L22.1441 5.76454L21.3135 9.97682L20.4825 14.1891L18.5263 12.2329L8.98556 21.7725L4.54858 26.2099L4.54893 26.2102Z" fill="black"/>
</g>

</symbol><symbol id="multireward-pool" viewBox="0 0 24 24">
<path d="M15.9454 23C16.5404 22.9189 17.0035 22.834 17.4968 22.654C20.4596 21.576 22.3243 19.5152 22.9197 16.3918C23.0768 15.3846 22.9647 14.0702 22.4204 13.0443C22.3804 12.9663 22.3304 12.8936 22.2517 12.7656C22.5477 15.5417 21.6563 17.8371 19.7529 19.7432C17.8495 21.6493 15.5528 22.5433 12.7693 22.2526C13.2785 22.5725 13.8885 22.8032 14.4864 22.9189C14.7138 22.9629 14.9999 23 14.9954 23C14.9954 23 15.2599 23 15.4454 23C15.6309 23 15.9454 23 15.9454 23Z" fill="#4875FF"/>
<path d="M21.434 13.8484C21.448 11.3969 19.8219 9.45355 17.4032 9.0722C15.9904 8.84952 14.6391 9.1542 13.3944 9.81689C10.9749 11.1056 9.47154 13.0897 9.06086 15.8331C8.65484 18.5405 10.3209 20.886 13.0057 21.3753C14.3204 21.6153 15.5898 21.3433 16.7678 20.7753C19.4672 19.4686 21.0653 17.3325 21.4347 14.3251C21.4439 14.1663 21.4437 14.0071 21.434 13.8484ZM20.5946 13.9024C20.5366 14.3131 20.5013 14.7291 20.4153 15.1338C19.9446 17.3545 17.7772 20.2099 14.3097 20.534C12.901 20.6673 11.681 20.2559 10.7663 19.1486C9.91956 18.1219 9.74355 16.9065 9.97756 15.6344C10.5196 12.685 12.9937 10.3062 15.9725 9.93089C18.6879 9.58955 20.5766 11.4269 20.5946 13.9024Z" fill="#4875FF"/>
<g opacity="0.48">
<path d="M10.7457 16.5038C10.7384 18.5105 12.2698 19.8939 14.2685 19.6706C16.86 19.3806 19.1794 17.2038 19.6294 14.6297C19.7323 14.0792 19.7118 13.5127 19.5694 12.971C19.188 11.5543 17.8407 10.6629 16.3746 10.7709C13.3192 10.9923 11.2777 13.5757 10.8744 15.5918C10.8124 15.8918 10.7884 16.1998 10.7457 16.5038ZM14.6125 12.3996L14.5699 12.3523C14.6812 12.2336 14.7745 12.0856 14.9085 12.0036C15.0739 11.9036 15.2506 11.9696 15.3806 12.111C15.4329 12.1754 15.4762 12.2468 15.5092 12.323C16.0599 13.4223 16.6146 14.5231 17.154 15.6264C17.2206 15.7638 17.2613 15.9598 17.214 16.0931C17.1713 16.2105 17.0006 16.3178 16.8653 16.3598C16.6826 16.4151 16.5219 16.3091 16.4359 16.1371C15.8412 14.9571 15.2499 13.7755 14.6619 12.5923C14.6386 12.53 14.6221 12.4654 14.6125 12.3996ZM14.9739 17.6978C14.9219 17.6645 14.7672 17.6205 14.7145 17.5218C14.3812 16.8991 14.0639 16.2691 13.7625 15.6311C13.6632 15.4204 13.7905 15.1877 13.9998 15.0937C14.0464 15.0692 14.0974 15.0542 14.1497 15.0494C14.2021 15.0446 14.255 15.0502 14.3052 15.0659C14.3554 15.0816 14.4021 15.107 14.4424 15.1407C14.4828 15.1744 14.5162 15.2158 14.5405 15.2624C14.8599 15.8731 15.1719 16.4878 15.4639 17.1125C15.5919 17.3938 15.3552 17.7032 14.9712 17.6998L14.9739 17.6978Z" fill="#4875FF"/>
<path d="M18.146 15.5331L17.0793 12.333L15.4792 11.7996H14.4125L13.3458 14.9997V17.1332L13.8792 18.7332H15.4792L17.6127 17.6665L18.146 15.5331Z" fill="#4875FF"/>
</g>
<path opacity="0.48" d="M1.41236 6.78143C1.03128 7.33973 0.955333 7.92201 1.02196 8.5316C1.13188 9.54093 1.53695 10.4397 2.1039 11.2631C3.1572 12.7954 4.5223 13.9334 6.31644 14.5023C6.96867 14.7088 7.6369 14.7841 8.30712 14.5849C8.50111 14.5198 8.68603 14.4302 8.85742 14.3184C6.83077 14.1805 5.23316 13.2045 3.84475 11.8281C2.45634 10.4517 1.5556 8.82874 1.41236 6.78143Z" fill="#4875FF"/>
<path d="M10.9997 11.1611C11.0077 10.6328 10.8664 10.0859 10.6419 9.5622C9.62792 7.18245 7.90573 5.57352 5.41272 4.83201C4.90158 4.66916 4.35615 4.64615 3.83311 4.76539C2.81312 5.01189 2.2295 5.89797 2.32077 7.03721C2.40738 8.12116 2.82644 9.08652 3.43271 9.96394C4.50333 11.5122 5.89773 12.6548 7.72518 13.2084C8.27215 13.3743 8.83312 13.439 9.40141 13.3317C10.4254 13.1385 11.007 12.3617 10.9997 11.1611ZM8.42406 9.03855C8.35743 9.02123 8.27216 9.00058 8.18555 8.97193L5.91172 8.2131C5.46202 8.0632 5.01032 7.91996 4.56462 7.76007C4.30746 7.66746 4.20285 7.43695 4.28413 7.2031C4.36541 6.96926 4.58794 6.86133 4.84776 6.93262C4.89573 6.94594 4.94237 6.9626 4.98967 6.97859C6.09383 7.34634 7.19776 7.71454 8.30147 8.08319C8.42193 8.11495 8.53906 8.15823 8.65124 8.21243C8.73905 8.25444 8.80886 8.32657 8.84799 8.4157C8.88711 8.50483 8.89295 8.60504 8.86443 8.69811C8.8138 8.90864 8.6619 9.01124 8.42406 9.03855ZM8.12092 11.2091C8.07599 11.2079 8.03131 11.2019 7.98768 11.1911C7.35809 10.9813 6.72651 10.7767 6.1016 10.5549C6.04803 10.5365 5.99872 10.5076 5.95662 10.4697C5.91453 10.4319 5.88052 10.3859 5.85662 10.3345C5.83273 10.2832 5.81945 10.2276 5.81759 10.171C5.81572 10.1144 5.82531 10.058 5.84577 10.0052C5.91239 9.80538 6.13491 9.65814 6.33811 9.72276C7.00433 9.93262 7.66456 10.1505 8.32013 10.389C8.52999 10.4649 8.60727 10.6608 8.55064 10.8833C8.49867 11.0916 8.35543 11.2002 8.12092 11.2091Z" fill="#4875FF"/>
<path d="M9.04298 8.44695L8.51 7.91397L6.97119 7.40103L4.24617 6.31503L3.71319 6.84801V8.44695L4.77915 10.0459L6.37809 11.6448L7.97702 12.1778L9.04298 11.6448V8.44695Z" fill="#4875FF"/>
<path opacity="0.48" d="M16.2534 6.74635C16.588 6.97474 16.937 7.02026 17.3023 6.98033C17.9073 6.91445 18.4459 6.67168 18.9394 6.33189C19.8578 5.70061 20.5398 4.88247 20.8808 3.80719C21.0046 3.41629 21.0497 3.0158 20.9303 2.61411C20.8912 2.49785 20.8376 2.38702 20.7706 2.2843C20.6879 3.49894 20.103 4.45643 19.278 5.28855C18.4531 6.12067 17.4804 6.6605 16.2534 6.74635Z" fill="#4875FF"/>
<path d="M18.8782 1.00019C18.5616 0.995402 18.2338 1.08005 17.9199 1.21461C16.4937 1.82233 15.5294 2.85449 15.085 4.34862C14.9874 4.65497 14.9736 4.98186 15.045 5.29534C15.1928 5.90665 15.7238 6.25643 16.4066 6.20172C17.0563 6.14982 17.6348 5.89866 18.1607 5.53531C19.0886 4.89365 19.7734 4.05794 20.1052 2.9627C20.2046 2.63488 20.2434 2.29868 20.1791 1.95809C20.0633 1.34438 19.5977 0.995801 18.8782 1.00019ZM17.6061 2.54384C17.5957 2.58377 17.5833 2.63488 17.5661 2.68679L17.1114 4.04956C17.0215 4.31908 16.9357 4.58979 16.8398 4.85692C16.7843 5.01104 16.6462 5.07373 16.506 5.02502C16.3659 4.97631 16.3012 4.84294 16.3439 4.68722C16.3519 4.65847 16.3619 4.63052 16.3715 4.60217C16.5919 3.94042 16.8126 3.2788 17.0335 2.61731C17.0525 2.54511 17.0785 2.47491 17.111 2.40768C17.1361 2.35506 17.1794 2.31321 17.2328 2.28976C17.2862 2.26632 17.3463 2.26282 17.402 2.27991C17.5282 2.31026 17.5897 2.40129 17.6061 2.54384ZM18.907 2.72552C18.9062 2.75245 18.9026 2.77922 18.8962 2.80538C18.7704 3.1827 18.6478 3.56123 18.5149 3.93576C18.5039 3.96787 18.4865 3.99742 18.4638 4.02265C18.4411 4.04788 18.4136 4.06826 18.3828 4.08258C18.352 4.0969 18.3187 4.10486 18.2848 4.10598C18.2509 4.10709 18.2171 4.10135 18.1854 4.08909C18.0657 4.04916 17.9774 3.9158 18.0161 3.79401C18.1419 3.39472 18.2725 2.99903 18.4154 2.60613C18.4609 2.48035 18.5783 2.43404 18.7117 2.46798C18.8365 2.49912 18.9016 2.58497 18.907 2.72552Z" fill="#4875FF"/>
<path d="M17.2515 2.1729L16.9321 2.49233L16.6247 3.41459L15.9738 5.04778L16.2932 5.36721L17.2515 5.36721L18.2098 4.72835L19.1681 3.77005L19.4875 2.81176L19.1681 2.1729L17.2515 2.1729Z" fill="#4875FF"/>
</symbol><symbol id="news" viewBox="0 0 24 24">
<path d="M13.3711 15.0156V6.22656C12.9401 6.31898 12.0674 6.44308 11.2877 6.4993H4.4375C4.058 6.4993 3.75 6.8073 3.75 7.1868V7.87429H1.6875C1.308 7.87429 1 8.18229 1 8.56179V12.6868C1 13.0663 1.308 13.3743 1.6875 13.3743H3.75V14.0618C3.75 14.4413 4.058 14.7493 4.4375 14.7493H4.85412L7.61787 22.1165C7.78699 22.5579 8.16511 22.8783 8.62986 22.9718C8.72199 22.991 8.81411 23.0007 8.90486 23.0007C9.27199 23.0007 9.62124 22.8549 9.87149 22.5937L11.5229 20.956C11.945 20.5339 12.0454 19.8753 11.7759 19.3652L9.46861 14.7493H11.2946C12.1591 14.7999 12.8448 14.9032 13.3711 15.0156Z" fill="#4875FF"/>
<path opacity="0.48" d="M22.8872 1.33208C22.8735 1.3087 22.8611 1.28945 22.8432 1.26745C22.7676 1.1712 22.6727 1.09283 22.5559 1.04745C22.5517 1.04608 22.549 1.04058 22.5449 1.0392C22.5311 1.03508 22.5187 1.04195 22.505 1.03783C22.4431 1.01995 22.3812 0.999329 22.3125 0.999329C22.2657 0.999329 22.2245 1.0172 22.1791 1.02683C22.153 1.03233 22.1282 1.0337 22.1021 1.04195C21.9839 1.08045 21.8821 1.14645 21.801 1.2372C21.7955 1.2427 21.7872 1.24408 21.7817 1.24958C19.6381 3.85245 16.6489 5.5932 13.375 6.2312V15.0188C16.6489 15.6568 19.6381 17.3962 21.7817 19.9991C21.7872 20.0059 21.7969 20.0087 21.8037 20.0169C21.8519 20.0706 21.911 20.1132 21.9742 20.1489C21.9949 20.1613 22.0114 20.1792 22.032 20.1888C22.1186 20.2259 22.2121 20.2493 22.3125 20.2493C22.3909 20.2493 22.4679 20.2355 22.5449 20.2094C22.549 20.208 22.5517 20.2026 22.5559 20.2012C22.6727 20.1558 22.7676 20.0788 22.8432 19.9812C22.8597 19.9592 22.8721 19.9399 22.8872 19.9166C22.9532 19.8107 23 19.6938 23 19.5618V1.68683C23 1.55483 22.9532 1.43795 22.8872 1.33208Z" fill="#4875FF"/>
</symbol><symbol id="shield-check" viewBox="0 0 33 33">
<path d="M12.5 16.9692L15.1667 19.6358L20.5 14.3025M15.3079 28.116C7.87743 25.729 4.77527 18.4622 4.50079 10.4272C4.47748 9.74472 4.97103 9.16977 5.62293 9.0369C9.15282 8.31746 11.9526 6.77631 15.0116 4.75235C15.9182 4.15254 17.0818 4.15254 17.9884 4.75235C21.0474 6.77631 23.8472 8.31746 27.3771 9.0369C28.029 9.16977 28.5225 9.74472 28.4992 10.4272C28.2247 18.4622 25.1226 25.729 17.6921 28.116C16.9179 28.3647 16.0821 28.3647 15.3079 28.116Z" stroke="#4875FF" stroke-width="2" stroke-linecap="round" stroke-linejoin="round"/>
</symbol><symbol id="star" viewBox="0 0 24 24">
<path d="M12 17.27L18.18 21L16.54 13.97L22 9.24L14.81 8.63L12 2L9.19 8.63L2 9.24L7.46 13.97L5.82 21L12 17.27Z" fill="#4875FF" fill-opacity="0.5"/>
</symbol><symbol id="trustpilot" viewBox="0 0 133 25">
<path d="M12.6828 0.219727L15.3277 8.35984H23.8867L16.9623 13.3907L19.6072 21.5308L12.6828 16.5L5.75843 21.5308L8.40332 13.3907L1.47892 8.35984H10.0379L12.6828 0.219727Z" fill="#00B57A"/>
<path d="M42.1239 19.5V6.94873H37.2872V4.95951H49.071V6.94873H44.2343V19.5H42.1239ZM49.6811 19.5V8.59463H51.5593V11.2402L51.2967 10.8969C51.4314 10.5468 51.6064 10.2271 51.8218 9.93761C52.0372 9.64141 52.2863 9.39907 52.569 9.21058C52.845 9.00863 53.1513 8.8538 53.4879 8.7461C53.8312 8.63166 54.1813 8.56434 54.5381 8.54415C54.8948 8.51722 55.2381 8.53405 55.568 8.59463V10.5738C55.2112 10.4795 54.8141 10.4526 54.3765 10.493C53.9457 10.5334 53.5485 10.6714 53.185 10.907C52.8417 11.1291 52.569 11.3984 52.3671 11.7148C52.1719 12.0312 52.0305 12.3846 51.943 12.775C51.8555 13.1587 51.8117 13.566 51.8117 13.9968V19.5H49.6811ZM61.6007 19.7928C60.8467 19.7928 60.2139 19.6717 59.7023 19.4293C59.1907 19.187 58.7733 18.8706 58.4502 18.4801C58.1338 18.083 57.8915 17.6521 57.7232 17.1877C57.5549 16.7232 57.4405 16.2688 57.3799 15.8245C57.3193 15.3802 57.289 14.9898 57.289 14.6532V8.59463H59.4297V13.9564C59.4297 14.3805 59.4633 14.8181 59.5307 15.2691C59.6047 15.7134 59.7393 16.1274 59.9346 16.5111C60.1365 16.8948 60.4159 17.2045 60.7727 17.4401C61.1362 17.6757 61.6074 17.7935 62.1863 17.7935C62.5633 17.7935 62.9201 17.7329 63.2567 17.6118C63.5932 17.4839 63.8861 17.2819 64.1352 17.0059C64.391 16.7299 64.5895 16.3664 64.7309 15.9154C64.879 15.4643 64.9531 14.9157 64.9531 14.2695L66.2657 14.7642C66.2657 15.7538 66.0806 16.6289 65.7104 17.3896C65.3401 18.1436 64.8083 18.7326 64.115 19.1567C63.4216 19.5808 62.5835 19.7928 61.6007 19.7928ZM65.2055 19.5V16.3496H64.9531V8.59463H67.0836V19.5H65.2055ZM74.086 19.7928C72.7598 19.7928 71.6794 19.5 70.8447 18.9143C70.0099 18.3287 69.4983 17.504 69.3098 16.4404L71.4707 16.1072C71.6053 16.6727 71.915 17.1203 72.3997 17.4502C72.8911 17.7733 73.5003 17.9349 74.2273 17.9349C74.8871 17.9349 75.402 17.8002 75.7723 17.531C76.1492 17.2617 76.3377 16.8915 76.3377 16.4202C76.3377 16.1442 76.2704 15.9221 76.1358 15.7538C76.0079 15.5788 75.7352 15.4139 75.3179 15.259C74.9005 15.1042 74.2644 14.9123 73.4094 14.6835C72.4737 14.4411 71.7299 14.182 71.1779 13.906C70.6326 13.6232 70.2422 13.2967 70.0066 12.9265C69.7777 12.5495 69.6632 12.0951 69.6632 11.5633C69.6632 10.9036 69.8383 10.328 70.1883 9.83663C70.5384 9.34522 71.0298 8.96488 71.6626 8.69561C72.3021 8.42634 73.0493 8.29171 73.9042 8.29171C74.739 8.29171 75.4828 8.42298 76.1358 8.68551C76.7888 8.94805 77.3172 9.32166 77.7211 9.80634C78.125 10.2843 78.3673 10.8464 78.4481 11.4926L76.2872 11.8864C76.2132 11.3614 75.9675 10.9474 75.5501 10.6444C75.1328 10.3415 74.5909 10.1766 73.9244 10.1497C73.2849 10.1227 72.7666 10.2304 72.3694 10.4728C71.9722 10.7084 71.7736 11.0349 71.7736 11.4522C71.7736 11.6946 71.8477 11.8999 71.9958 12.0682C72.1506 12.2365 72.4468 12.398 72.8844 12.5529C73.3219 12.7077 73.9682 12.8928 74.8231 13.1082C75.7386 13.3439 76.4656 13.6064 77.0042 13.8959C77.5427 14.1786 77.9264 14.5185 78.1553 14.9157C78.3909 15.3061 78.5087 15.7807 78.5087 16.3395C78.5087 17.4165 78.1149 18.2614 77.3273 18.874C76.5464 19.4865 75.466 19.7928 74.086 19.7928ZM86.9832 19.5C86.2966 19.6346 85.6234 19.6919 84.9637 19.6717C84.304 19.6515 83.715 19.5236 83.1967 19.288C82.6783 19.0523 82.2879 18.6821 82.0253 18.1772C81.7897 17.7262 81.6618 17.2684 81.6416 16.804C81.6282 16.3327 81.6214 15.8009 81.6214 15.2085V5.56536H83.7419V15.1076C83.7419 15.5451 83.7453 15.9255 83.752 16.2486C83.7655 16.5717 83.8362 16.8443 83.9641 17.0665C84.2064 17.4839 84.5901 17.7228 85.1152 17.7834C85.647 17.8373 86.2697 17.8137 86.9832 17.7127V19.5ZM79.5312 10.291V8.59463H86.9832V10.291H79.5312ZM94.402 19.8029C93.3585 19.8029 92.4834 19.5505 91.7766 19.0456C91.0698 18.534 90.5346 17.844 90.1711 16.9756C89.8076 16.1072 89.6258 15.1278 89.6258 14.0372C89.6258 12.9467 89.8042 11.9672 90.161 11.0988C90.5245 10.2304 91.0563 9.54717 91.7564 9.04902C92.4632 8.54415 93.3316 8.29171 94.3616 8.29171C95.3848 8.29171 96.2666 8.54415 97.0071 9.04902C97.7543 9.54717 98.3299 10.2304 98.7338 11.0988C99.1377 11.9605 99.3397 12.94 99.3397 14.0372C99.3397 15.1278 99.1377 16.1106 98.7338 16.9857C98.3366 17.8541 97.7678 18.5407 97.0273 19.0456C96.2936 19.5505 95.4184 19.8029 94.402 19.8029ZM89.2724 24.3468V8.59463H91.1505V16.4404H91.3929V24.3468H89.2724ZM94.1091 17.8945C94.7823 17.8945 95.3377 17.7228 95.7752 17.3795C96.2195 17.0362 96.5494 16.5751 96.7648 15.9961C96.9869 15.4105 97.098 14.7575 97.098 14.0372C97.098 13.3237 96.9869 12.6774 96.7648 12.0985C96.5494 11.5196 96.2162 11.0584 95.7651 10.7151C95.3141 10.3718 94.7385 10.2001 94.0384 10.2001C93.3787 10.2001 92.8335 10.3617 92.4026 10.6848C91.9785 11.008 91.6622 11.459 91.4535 12.0379C91.2515 12.6168 91.1505 13.2833 91.1505 14.0372C91.1505 14.7912 91.2515 15.4576 91.4535 16.0365C91.6554 16.6155 91.9752 17.0699 92.4127 17.3997C92.8503 17.7296 93.4158 17.8945 94.1091 17.8945ZM101.771 6.80737V4.75756H103.882V6.80737H101.771ZM101.771 19.5V8.59463H103.882V19.5H101.771ZM107.116 19.5V4.65659H109.226V19.5H107.116ZM116.994 19.8029C115.904 19.8029 114.958 19.5572 114.157 19.0658C113.356 18.5744 112.736 17.8979 112.299 17.0362C111.868 16.1678 111.653 15.1681 111.653 14.0372C111.653 12.8996 111.875 11.8999 112.319 11.0382C112.763 10.1699 113.386 9.49668 114.187 9.01873C114.988 8.53405 115.924 8.29171 116.994 8.29171C118.085 8.29171 119.03 8.53741 119.832 9.02883C120.633 9.52024 121.252 10.1968 121.69 11.0584C122.127 11.9201 122.346 12.913 122.346 14.0372C122.346 15.1749 122.124 16.1779 121.679 17.0463C121.242 17.908 120.623 18.5845 119.821 19.0759C119.02 19.5606 118.078 19.8029 116.994 19.8029ZM116.994 17.8137C118.038 17.8137 118.815 17.4637 119.327 16.7636C119.845 16.0567 120.104 15.148 120.104 14.0372C120.104 12.8996 119.842 11.9908 119.317 11.3109C118.798 10.6242 118.024 10.2809 116.994 10.2809C116.287 10.2809 115.705 10.4425 115.247 10.7656C114.79 11.082 114.45 11.5229 114.227 12.0884C114.005 12.6471 113.894 13.2967 113.894 14.0372C113.894 15.1816 114.157 16.0971 114.682 16.7838C115.207 17.4704 115.978 17.8137 116.994 17.8137ZM130.805 19.5C130.118 19.6346 129.445 19.6919 128.786 19.6717C128.126 19.6515 127.537 19.5236 127.018 19.288C126.5 19.0523 126.11 18.6821 125.847 18.1772C125.612 17.7262 125.484 17.2684 125.463 16.804C125.45 16.3327 125.443 15.8009 125.443 15.2085V5.56536H127.564V15.1076C127.564 15.5451 127.567 15.9255 127.574 16.2486C127.587 16.5717 127.658 16.8443 127.786 17.0665C128.028 17.4839 128.412 17.7228 128.937 17.7834C129.469 17.8373 130.092 17.8137 130.805 17.7127V19.5ZM123.353 10.291V8.59463H130.805V10.291H123.353Z" fill="black"/>
</symbol><symbol id="wallet" viewBox="0 0 33 33">
<path fill-rule="evenodd" clip-rule="evenodd" d="M7.16675 4.63574C4.40532 4.63574 2.16675 6.87432 2.16675 9.63574V22.9691C2.16675 25.7305 4.40532 27.9691 7.16675 27.9691H25.8334C28.5948 27.9691 30.8334 25.7305 30.8334 22.9691V20.9691V15.6357V13.6357C30.8334 10.8743 28.5948 8.63574 25.8334 8.63574H7.16675C6.61446 8.63574 6.16675 9.08346 6.16675 9.63574C6.16675 10.188 6.61446 10.6357 7.16675 10.6357L25.8334 10.6357C27.4903 10.6357 28.8334 11.9789 28.8334 13.6357V15.6357V20.9691V22.9691C28.8334 24.6259 27.4903 25.9691 25.8334 25.9691H7.16675C5.50989 25.9691 4.16675 24.6259 4.16675 22.9691V9.63574C4.16675 7.97889 5.50989 6.63574 7.16675 6.63574H24.5001C25.0524 6.63574 25.5001 6.18803 25.5001 5.63574C25.5001 5.08346 25.0524 4.63574 24.5001 4.63574H7.16675ZM20.5001 18.3024C20.5001 16.8296 21.694 15.6357 23.1667 15.6357H28.5001V20.9691H23.1667C21.694 20.9691 20.5001 19.7752 20.5001 18.3024ZM24.1667 18.3024C24.1667 18.8547 23.719 19.3024 23.1667 19.3024C22.6145 19.3024 22.1667 18.8547 22.1667 18.3024C22.1667 17.7501 22.6145 17.3024 23.1667 17.3024C23.719 17.3024 24.1667 17.7501 24.1667 18.3024Z" fill="#4875FF"/>
</symbol></svg>