<svg width="133" height="25" viewBox="0 0 133 25" fill="none" xmlns="http://www.w3.org/2000/svg">
<path d="M12.6828 0.219727L15.3277 8.35984H23.8867L16.9623 13.3907L19.6072 21.5308L12.6828 16.5L5.75843 21.5308L8.40332 13.3907L1.47892 8.35984H10.0379L12.6828 0.219727Z" fill="#00B57A"/>
<path d="M42.1239 19.5V6.94873H37.2872V4.95951H49.071V6.94873H44.2343V19.5H42.1239ZM49.6811 19.5V8.59463H51.5593V11.2402L51.2967 10.8969C51.4314 10.5468 51.6064 10.2271 51.8218 9.93761C52.0372 9.64141 52.2863 9.39907 52.569 9.21058C52.845 9.00863 53.1513 8.8538 53.4879 8.7461C53.8312 8.63166 54.1813 8.56434 54.5381 8.54415C54.8948 8.51722 55.2381 8.53405 55.568 8.59463V10.5738C55.2112 10.4795 54.8141 10.4526 54.3765 10.493C53.9457 10.5334 53.5485 10.6714 53.185 10.907C52.8417 11.1291 52.569 11.3984 52.3671 11.7148C52.1719 12.0312 52.0305 12.3846 51.943 12.775C51.8555 13.1587 51.8117 13.566 51.8117 13.9968V19.5H49.6811ZM61.6007 19.7928C60.8467 19.7928 60.2139 19.6717 59.7023 19.4293C59.1907 19.187 58.7733 18.8706 58.4502 18.4801C58.1338 18.083 57.8915 17.6521 57.7232 17.1877C57.5549 16.7232 57.4405 16.2688 57.3799 15.8245C57.3193 15.3802 57.289 14.9898 57.289 14.6532V8.59463H59.4297V13.9564C59.4297 14.3805 59.4633 14.8181 59.5307 15.2691C59.6047 15.7134 59.7393 16.1274 59.9346 16.5111C60.1365 16.8948 60.4159 17.2045 60.7727 17.4401C61.1362 17.6757 61.6074 17.7935 62.1863 17.7935C62.5633 17.7935 62.9201 17.7329 63.2567 17.6118C63.5932 17.4839 63.8861 17.2819 64.1352 17.0059C64.391 16.7299 64.5895 16.3664 64.7309 15.9154C64.879 15.4643 64.9531 14.9157 64.9531 14.2695L66.2657 14.7642C66.2657 15.7538 66.0806 16.6289 65.7104 17.3896C65.3401 18.1436 64.8083 18.7326 64.115 19.1567C63.4216 19.5808 62.5835 19.7928 61.6007 19.7928ZM65.2055 19.5V16.3496H64.9531V8.59463H67.0836V19.5H65.2055ZM74.086 19.7928C72.7598 19.7928 71.6794 19.5 70.8447 18.9143C70.0099 18.3287 69.4983 17.504 69.3098 16.4404L71.4707 16.1072C71.6053 16.6727 71.915 17.1203 72.3997 17.4502C72.8911 17.7733 73.5003 17.9349 74.2273 17.9349C74.8871 17.9349 75.402 17.8002 75.7723 17.531C76.1492 17.2617 76.3377 16.8915 76.3377 16.4202C76.3377 16.1442 76.2704 15.9221 76.1358 15.7538C76.0079 15.5788 75.7352 15.4139 75.3179 15.259C74.9005 15.1042 74.2644 14.9123 73.4094 14.6835C72.4737 14.4411 71.7299 14.182 71.1779 13.906C70.6326 13.6232 70.2422 13.2967 70.0066 12.9265C69.7777 12.5495 69.6632 12.0951 69.6632 11.5633C69.6632 10.9036 69.8383 10.328 70.1883 9.83663C70.5384 9.34522 71.0298 8.96488 71.6626 8.69561C72.3021 8.42634 73.0493 8.29171 73.9042 8.29171C74.739 8.29171 75.4828 8.42298 76.1358 8.68551C76.7888 8.94805 77.3172 9.32166 77.7211 9.80634C78.125 10.2843 78.3673 10.8464 78.4481 11.4926L76.2872 11.8864C76.2132 11.3614 75.9675 10.9474 75.5501 10.6444C75.1328 10.3415 74.5909 10.1766 73.9244 10.1497C73.2849 10.1227 72.7666 10.2304 72.3694 10.4728C71.9722 10.7084 71.7736 11.0349 71.7736 11.4522C71.7736 11.6946 71.8477 11.8999 71.9958 12.0682C72.1506 12.2365 72.4468 12.398 72.8844 12.5529C73.3219 12.7077 73.9682 12.8928 74.8231 13.1082C75.7386 13.3439 76.4656 13.6064 77.0042 13.8959C77.5427 14.1786 77.9264 14.5185 78.1553 14.9157C78.3909 15.3061 78.5087 15.7807 78.5087 16.3395C78.5087 17.4165 78.1149 18.2614 77.3273 18.874C76.5464 19.4865 75.466 19.7928 74.086 19.7928ZM86.9832 19.5C86.2966 19.6346 85.6234 19.6919 84.9637 19.6717C84.304 19.6515 83.715 19.5236 83.1967 19.288C82.6783 19.0523 82.2879 18.6821 82.0253 18.1772C81.7897 17.7262 81.6618 17.2684 81.6416 16.804C81.6282 16.3327 81.6214 15.8009 81.6214 15.2085V5.56536H83.7419V15.1076C83.7419 15.5451 83.7453 15.9255 83.752 16.2486C83.7655 16.5717 83.8362 16.8443 83.9641 17.0665C84.2064 17.4839 84.5901 17.7228 85.1152 17.7834C85.647 17.8373 86.2697 17.8137 86.9832 17.7127V19.5ZM79.5312 10.291V8.59463H86.9832V10.291H79.5312ZM94.402 19.8029C93.3585 19.8029 92.4834 19.5505 91.7766 19.0456C91.0698 18.534 90.5346 17.844 90.1711 16.9756C89.8076 16.1072 89.6258 15.1278 89.6258 14.0372C89.6258 12.9467 89.8042 11.9672 90.161 11.0988C90.5245 10.2304 91.0563 9.54717 91.7564 9.04902C92.4632 8.54415 93.3316 8.29171 94.3616 8.29171C95.3848 8.29171 96.2666 8.54415 97.0071 9.04902C97.7543 9.54717 98.3299 10.2304 98.7338 11.0988C99.1377 11.9605 99.3397 12.94 99.3397 14.0372C99.3397 15.1278 99.1377 16.1106 98.7338 16.9857C98.3366 17.8541 97.7678 18.5407 97.0273 19.0456C96.2936 19.5505 95.4184 19.8029 94.402 19.8029ZM89.2724 24.3468V8.59463H91.1505V16.4404H91.3929V24.3468H89.2724ZM94.1091 17.8945C94.7823 17.8945 95.3377 17.7228 95.7752 17.3795C96.2195 17.0362 96.5494 16.5751 96.7648 15.9961C96.9869 15.4105 97.098 14.7575 97.098 14.0372C97.098 13.3237 96.9869 12.6774 96.7648 12.0985C96.5494 11.5196 96.2162 11.0584 95.7651 10.7151C95.3141 10.3718 94.7385 10.2001 94.0384 10.2001C93.3787 10.2001 92.8335 10.3617 92.4026 10.6848C91.9785 11.008 91.6622 11.459 91.4535 12.0379C91.2515 12.6168 91.1505 13.2833 91.1505 14.0372C91.1505 14.7912 91.2515 15.4576 91.4535 16.0365C91.6554 16.6155 91.9752 17.0699 92.4127 17.3997C92.8503 17.7296 93.4158 17.8945 94.1091 17.8945ZM101.771 6.80737V4.75756H103.882V6.80737H101.771ZM101.771 19.5V8.59463H103.882V19.5H101.771ZM107.116 19.5V4.65659H109.226V19.5H107.116ZM116.994 19.8029C115.904 19.8029 114.958 19.5572 114.157 19.0658C113.356 18.5744 112.736 17.8979 112.299 17.0362C111.868 16.1678 111.653 15.1681 111.653 14.0372C111.653 12.8996 111.875 11.8999 112.319 11.0382C112.763 10.1699 113.386 9.49668 114.187 9.01873C114.988 8.53405 115.924 8.29171 116.994 8.29171C118.085 8.29171 119.03 8.53741 119.832 9.02883C120.633 9.52024 121.252 10.1968 121.69 11.0584C122.127 11.9201 122.346 12.913 122.346 14.0372C122.346 15.1749 122.124 16.1779 121.679 17.0463C121.242 17.908 120.623 18.5845 119.821 19.0759C119.02 19.5606 118.078 19.8029 116.994 19.8029ZM116.994 17.8137C118.038 17.8137 118.815 17.4637 119.327 16.7636C119.845 16.0567 120.104 15.148 120.104 14.0372C120.104 12.8996 119.842 11.9908 119.317 11.3109C118.798 10.6242 118.024 10.2809 116.994 10.2809C116.287 10.2809 115.705 10.4425 115.247 10.7656C114.79 11.082 114.45 11.5229 114.227 12.0884C114.005 12.6471 113.894 13.2967 113.894 14.0372C113.894 15.1816 114.157 16.0971 114.682 16.7838C115.207 17.4704 115.978 17.8137 116.994 17.8137ZM130.805 19.5C130.118 19.6346 129.445 19.6919 128.786 19.6717C128.126 19.6515 127.537 19.5236 127.018 19.288C126.5 19.0523 126.11 18.6821 125.847 18.1772C125.612 17.7262 125.484 17.2684 125.463 16.804C125.45 16.3327 125.443 15.8009 125.443 15.2085V5.56536H127.564V15.1076C127.564 15.5451 127.567 15.9255 127.574 16.2486C127.587 16.5717 127.658 16.8443 127.786 17.0665C128.028 17.4839 128.412 17.7228 128.937 17.7834C129.469 17.8373 130.092 17.8137 130.805 17.7127V19.5ZM123.353 10.291V8.59463H130.805V10.291H123.353Z" fill="black"/>
</svg>
