<svg width="33" height="33" viewBox="0 0 33 33" fill="none" xmlns="http://www.w3.org/2000/svg">
<path fill-rule="evenodd" clip-rule="evenodd" d="M7.16675 4.63574C4.40532 4.63574 2.16675 6.87432 2.16675 9.63574V22.9691C2.16675 25.7305 4.40532 27.9691 7.16675 27.9691H25.8334C28.5948 27.9691 30.8334 25.7305 30.8334 22.9691V20.9691V15.6357V13.6357C30.8334 10.8743 28.5948 8.63574 25.8334 8.63574H7.16675C6.61446 8.63574 6.16675 9.08346 6.16675 9.63574C6.16675 10.188 6.61446 10.6357 7.16675 10.6357L25.8334 10.6357C27.4903 10.6357 28.8334 11.9789 28.8334 13.6357V15.6357V20.9691V22.9691C28.8334 24.6259 27.4903 25.9691 25.8334 25.9691H7.16675C5.50989 25.9691 4.16675 24.6259 4.16675 22.9691V9.63574C4.16675 7.97889 5.50989 6.63574 7.16675 6.63574H24.5001C25.0524 6.63574 25.5001 6.18803 25.5001 5.63574C25.5001 5.08346 25.0524 4.63574 24.5001 4.63574H7.16675ZM20.5001 18.3024C20.5001 16.8296 21.694 15.6357 23.1667 15.6357H28.5001V20.9691H23.1667C21.694 20.9691 20.5001 19.7752 20.5001 18.3024ZM24.1667 18.3024C24.1667 18.8547 23.719 19.3024 23.1667 19.3024C22.6145 19.3024 22.1667 18.8547 22.1667 18.3024C22.1667 17.7501 22.6145 17.3024 23.1667 17.3024C23.719 17.3024 24.1667 17.7501 24.1667 18.3024Z" fill="#4875FF"/>
</svg>
